<?xml version="1.0" encoding="utf-8"?>
<!-- Generator: Adobe Illustrator 23.0.0, SVG Export Plug-In . SVG Version: 6.00 Build 0)  -->
<svg version="1.1" id="Layer_1" xmlns="http://www.w3.org/2000/svg" xmlns:xlink="http://www.w3.org/1999/xlink" x="0px" y="0px"
	 viewBox="0 0 79.8 90" style="enable-background:new 0 0 79.8 90;" xml:space="preserve">
<style type="text/css">
	.st0{fill:#E2E0DF;stroke:#E2E0DF;stroke-miterlimit:10;}
</style>
<g>
	<path class="st0" d="M62.2,39.1C60,28.6,53.2,21.7,42.7,19c-10.7-2.8-19.9,0.3-27.6,9.1c-0.6,0.6-1.1,1.4-1,2.2
		c0.2,0.6,0.6,1.1,1.9,1.6c0.4,0.2,0.9,0.4,1.3,0.6c3.2,1.3,6.2,2.5,5.9,7.2l0.8,0.1c0.2-1.9,0.6-3.1,1.5-3.7c0.9-0.6,2.2-0.6,4,0
		c0.4,0.2,0.9,0.1,1.4,0.1c1.2-0.1,2,0.1,2.6,0.6c0.6,0.6,0.9,1.6,1,3.5c0,1.2-0.2,2-0.6,2.5c-0.6,0.6-1.7,0.6-3.2,0.6
		c-0.6-0.1-1.4,0-2,0c-0.3,0-0.6,0-0.9,0c-2.8,0-4.5,0.6-5.2,1.9c-0.9,1.5-0.6,3.6,1,6.6l0.5,1l0.2-1.1c0.2-0.9,0.1-1.8,0-2.7
		c-0.1-0.9-0.2-1.8,0.2-2.3c0.2-0.3,0.7-0.5,1.5-0.5c0.6,0,1.4-0.2,2.2-0.3c2.4-0.4,4.9-0.8,5.9,1.4c0.8,1.8,0.9,3.2,0.3,4.4
		c-0.8,1.5-3,2.6-6.6,3.2L25,55.4l2.8,0.3c4.9,0.6,9.2,0.6,12.8,0.6c1.7,0,3.4,0,4.5,1c0.6,0.6,1,1.6,0.9,3.1v0.9l0.6-0.6
		c0.2-0.2,0.4-0.3,0.5-0.4c0.2-0.2,0.4-0.3,0.6-0.6c0.3-1,0.7-1.5,1.3-1.8c0.4-0.2,0.9-0.2,1.5,0.1c0.3,0.1,0.6,0.2,1.1,0.3
		c1.1,0.2,1.9,0.5,2,1.3c0.2,0.8-0.4,1.3-1.3,2c-0.2,0.2-0.6,0.4-0.8,0.6c-0.3,0.3-0.6,0.6-1.1,0.9c-1.3,1-2.8,2.1-2.1,4.5l0.2,0.5
		l0.4-0.2C59.5,62.8,64.8,51.1,62.2,39.1z M34.4,24.6c0.1,0.7,0,1.5,0,2.2c0,0.3,0,0.6,0,1l0,0c0,0.2,0,0.4,0,0.6c0,0.5,0,0.9,0,1.3
		c-0.1,0.4,0,0.9,0,1.4c0.1,1.3,0.1,1.9-0.8,2.1c-2.4,0.6-4.8,0.5-6.8-0.3c-0.5-0.2-0.5-0.6-0.2-1.6c1.1-3.5,2.5-6.1,4.6-8l0.2-0.2
		c0.7-0.6,1.2-1.1,1.9-1.1c0.2,0,0.4,0.1,0.6,0.2c0.6,0.3,0.6,0.8,0.6,1.7C34.4,24,34.4,24.3,34.4,24.6z M27.2,23.5
		c-0.3,0.6-0.6,1.3-0.9,1.9c-0.9,1.9-1.6,3.6-2.3,5.3c-0.5,1.3-1.1,1.6-2.2,1.2c-0.4-0.2-0.8-0.2-1.2-0.3c-1.2-0.2-2-0.5-2.3-1.3
		c-0.2-0.8,0.4-1.5,1.5-2.3c0.2-0.2,0.4-0.3,0.6-0.5C22.3,25.9,24.2,24.3,27.2,23.5z M59.3,41.6c-0.1,0.7-0.2,1.2-0.6,1.5
		c-0.4,0.3-1.1,0.2-1.9,0.1C56.5,43,56.1,43,55.8,43s-0.6,0.1-0.9,0.2c-2.4,0-3.7-0.2-4.4-0.8c-0.8-0.8-0.9-2.5-0.9-5.9
		c0-2.4,1.7-2.7,3.6-2.9c0.7-0.1,1.5-0.2,2.2-0.5c0.1-0.1,0.3,0,0.6,0.2C57.5,34.4,59.6,39,59.3,41.6z M50.4,47.3
		c0.8-0.8,2.2-1.2,4.7-1.2c0.5,0.2,1.1,0.2,1.8,0.1c0.7-0.1,1.5-0.2,1.9,0.2c0.3,0.3,0.5,0.9,0.5,1.7c0,3-2,7.4-3.6,8.4
		c-0.2,0.1-0.4,0.2-0.6,0.2c-0.6-0.2-1.3-0.3-2-0.4c-1.9-0.2-3.5-0.5-3.6-2.8C49.3,50.1,49.5,48.2,50.4,47.3z M45.8,25.5l-0.9-1.9
		c3.6,1.2,5.8,3.2,7.5,4.9c0.2,0.2,0.2,0.2,0.4,0.4c0.9,0.8,1.2,1.2,0.8,1.7c-0.6,0.8-1.5,1.1-2.7,1.3c-0.3,0.1-0.6,0.2-1.1,0.2
		c-0.9,0.2-1.4,0.1-1.7-0.8C47.6,29.4,46.7,27.5,45.8,25.5z M40,36.2c0.2,0,0.4,0,0.6,0c0.7,0,1.5,0.1,2.3-0.2
		c1.5-0.5,2.5-0.5,3.2-0.1c1,0.6,1.2,2.2,1.4,3.9c0.2,1.5,0,2.4-0.5,3c-0.6,0.6-1.8,0.6-3,0.5c-0.4,0-0.7-0.1-1.1-0.1
		c-0.2,0-0.5,0-0.7,0c-2.8,0-4.1-0.1-4.6-0.6C37,42,37,40.9,37,38.8C37.3,36.9,38,36.2,40,36.2z M45.5,32.7
		c-0.2,0.4-0.8,0.5-1.2,0.6c-1.1,0.2-2.3,0.2-3.3,0.3c-0.5,0-1,0.1-1.5,0.1l0,0c-0.8,0.2-1.4,0-1.8-0.2c-0.4-0.3-0.6-0.9-0.6-1.7
		c0-1.4,0-2.8,0-4.2c0-1.3,0-2.6,0-3.9c0-1,0.2-1.5,0.6-1.8c0.1-0.1,0.2-0.1,0.3-0.1c0.4,0,0.9,0.2,1.5,0.6c3.3,2.3,4.9,5.9,5.9,9.1
		C45.7,32,45.7,32.4,45.5,32.7z M37.1,48.9c0.2-2.9,1.6-2.8,3.3-2.7c0.7,0.1,1.4,0.1,2-0.1c2.3,0,4,0.7,4.9,2
		c0.7,1.3,0.6,3.1-0.5,5.2c-0.5,0.9-1,1.1-1.8,1.1c-0.3-0.1-0.6-0.2-1-0.2c-0.6-0.2-1.1-0.2-1.6-0.2c-0.1,0-0.2,0-0.2,0
		c-2.1,0.2-3.4-0.2-4.2-1C37.2,52.1,37,50.8,37.1,48.9z"/>
	<path class="st0" d="M42.8,60.5l-0.4-0.3c-2-1.5-4.5-3.3-6.9-0.8c-2.8,3-4.9,1.7-7.5-0.3c-3.2-2.7-5.9-5.3-8.1-8.3
		c-1.7-2.2-2.2-3.9,0-6.2c0.9-0.9,1.4-2,1.3-3.3c-0.1-1.9-1.3-4-3.6-6c-2.9-2.5-5.3-1.2-7.3,0.5c-4,3.3-10,6.9-8.1,11.2
		c6,13.7,19.5,18.8,30.7,23.7c1.1,0.5,2.4,0.8,3.4,1c0.4,0.1,0.8,0.2,1.1,0.2h0.1h0.1c4.6,0,6.6-2.8,7.8-5.2
		C47,63.5,44.2,61.5,42.8,60.5z"/>
</g>
</svg>
