<?xml version="1.0" encoding="utf-8"?>
<!-- Generator: Adobe Illustrator 23.0.0, SVG Export Plug-In . SVG Version: 6.00 Build 0)  -->
<svg version="1.1" id="Layer_1" xmlns="http://www.w3.org/2000/svg" xmlns:xlink="http://www.w3.org/1999/xlink" x="0px" y="0px"
	 viewBox="0 0 947.8 947.8" style="enable-background:new 0 0 947.8 947.8;" xml:space="preserve">
<style type="text/css">
	.st0{fill:#FFFFFF;}
</style>
<g>
	<path class="st0" d="M83.4,359.2c2.2,12.6,2.9,25.5,2.1,38.3c-20.7,0.8-41.5,1.5-62.2,2.3c4.1,11.5,17.2,16.5,28.8,20.1
		c237.5,73.9,478.7,137.8,724.8,174.3c-167.2-85.7-339.5-173-526.5-191.3c-3.1-0.3-6.6-0.8-8.7-3.2c-1.6-1.9-1.8-4.5-2-6.9
		c-1.6-21.7-1.2-43.5,1.1-65.2c0.5-4.9,1.2-9.8,3.1-14.3c7.8-17.8,31.4-20.7,50.8-21c-4.5,25.4-5.5,51.3-3.1,77
		c0.3,2.7,0.6,5.5,2.4,7.6c2.2,2.5,6,2.9,9.3,3.2c155,13.1,295.1,93.6,428.8,173.2c-47.2-73-102.5-140.8-164.5-201.8
		c58.7,48.8,117.5,97.6,176.2,146.5c30.8,25.6,65.4,52.5,105.4,51.3c11.3-0.3,23-3.3,31.3-10.9c19.9-18.4,9.8-48.2,4.6-70.7
		l-19.2-62.7c-0.5-2.9-1.9-5.4-3.4-7.8c1.5,2.2,2.3,4.8,4.9,6.2c22,34.9,39.6,72.2,58.3,108.9c-38-98.8-92-195.7-177.6-258.1
		C665,193.5,557.4,171,455.3,182.7c-39.4,4.5-78.6,13.8-118.2,12.6c-17.6-0.5-35.5-3.1-52.6,0.8c-16.3,3.7-30.8,13.1-44.8,22.3
		C174.5,261,109.3,303.7,44.2,346.4c45.8-22.4,91.6-44.8,137.4-67.2c26.8-7.1,53-16.5,78.1-28.2c5-2.3,10.2-4.9,13.4-9.5
		c2.6-3.7,3.6-8.3,6.3-11.9c3.8-5,10.1-7.1,16.1-8.9c45.9-13.7,93.3-22.3,141.1-25.4c1.6,0.1,3.4-0.3,4.9,0.5
		c-36.3,5.9-71.9,15.6-106.2,28.9c54.1-2.8,109,20.5,144.6,61.4c-49.6-24.4-102.6-49.5-157.6-43.8c-29.6,3-57.4,14.8-84.7,26.6
		c-68.2,29.6-135.9,60.5-202.3,94c-6.8,3.4-14.9,9.6-12.5,16.8C43.1,372.9,63.2,366.1,83.4,359.2z M782.7,449.9
		c-19,0-34.4-15.4-34.4-34.4c0-19,15.4-34.4,34.4-34.4s34.4,15.4,34.4,34.4S801.7,449.9,782.7,449.9z M475.3,262.2
		c-11.8-20-7.8-38.4,11.5-51.2c16-10.6,33.9-15.5,53-15.4c39.9,0.2,78.2,8.8,115.3,22.5c52.3,19.4,96.9,50.4,136.2,89.6
		c4.5,4.4,8.4,9.4,12.2,14.5c5.9,7.8,5.8,12.3-0.2,20.3c-5.8,7.7-14.1,11.2-23,13.6c-11.3,2.9-22.9,3.5-34.6,3.4
		c-72.4-3.7-143.1-14.8-208.9-47.3c-18-8.9-34.7-19.6-48.9-33.9C483.1,273.3,478.8,268.1,475.3,262.2z M190.3,325.9
		c0.2-2.2,0-4.5,2.9-5.4c12.9-4.1,25.7-8.4,39.2-12.8c-1,31,1.3,60.9,4,90.8c0.4,4.1-0.1,5.7-5,5.3c-12.6-1.2-25.2-1.8-37.8-2.4
		c-4.2-0.2-6.2-1.1-6.3-5.9C186.7,372.2,187.8,349,190.3,325.9z M145.1,340.2c0.3-2.7,1.6-3.9,3.9-4.7c8.9-3,17.8-5.8,26.5-9.1
		c4.8-1.8,4.9,0.5,4.8,4.1c-0.1,10.6-0.1,21.2-0.1,31.8c0.3,0,0.5,0,0.8,0c0.8,11.1,1.4,22.2,2.3,33.3c0.4,4.1-0.9,5.1-4.9,4.8
		c-10.3-0.7-20.7-1-31.1-1.2c-3.9-0.1-5.8-0.9-5.8-5.4C141.8,375.9,143.2,358,145.1,340.2z M112.1,377c0.1-3,0.2-6,0.3-9.1
		c1.2-22.2,2.1-23.2,25.1-27.6c-1,18.2-0.4,36.2,1.3,54.2c0.3,3.3-0.5,4.8-3.9,4.3c-0.2,0-0.5,0-0.8,0
		C111.6,399.5,111.6,399.5,112.1,377z M88.7,359.2c0.2-2,1.2-3,3.1-3.7c5.4-1.8,10.8-3.8,17-6c0.1,15.8-0.6,30.4,1.1,45
		c0.1,1,0.3,2.8,0,2.9c-5.8,2.2-11.9,0.4-17.8,0.9c-3.8,0.3-3.8-3-4-5.1C87,381.8,87.5,370.5,88.7,359.2z"/>
	<path class="st0" d="M937.1,544.9c0.2,2.5,0.4,5,0.7,7.5c3.3,27.4-7.9,46.6-33.4,57c-17.4,7.1-35.7,8.9-54.2,9.3
		c-40.7,0.8-80.8-4.7-120.3-13.2c-89.2-19-178.5-37.3-267.8-55.7c-62.6-12.9-125.3-25.7-186-45.9c-69.4-23.2-138.4-47.6-208.6-68.5
		c-2.9-0.9-5.8-3-9.2-1.3c66,31.9,132.6,62.1,199.8,91C391.7,582.6,528.9,629.3,669.9,665c65,16.5,130.2,22.4,196.6,8.4
		c36-7.6,64.4-23.3,76.2-60.7C950.1,589.4,950.6,566.7,937.1,544.9z"/>
	<path class="st0" d="M584.3,765.5c-108.3-56-216.5-112-324.8-168c-82.5-42.6-165-85.2-247.5-127.8c-3.4-2.7-7.2-4.8-11.9-4.8
		c3.5,2.1,6.9,4.1,10.4,6.2l0,0C150,559.6,289.7,648,430.9,737.5c-63.1,8.8-123.8,17.3-184.5,25.8c0,0.4,0,0.9,0.1,1.3
		c113.4,1.2,226.8,2.3,340.2,3.5C586,766.4,585.1,765.9,584.3,765.5z"/>
	<path class="st0" d="M872.9,678.6c-26.4,9.3-53.8,13.6-81.7,14.6c-52.5,2-103.8-5.9-154.7-17.7c-46.8-10.8-92.3-25.7-137.5-42
		c-4.1-2.1-8.2-4.3-13.1-3.4c3.8,1.7,7.6,3.3,11.4,5c50.9,25.1,102.4,49.1,155.2,70c31.4,12.4,63.5,21.9,97.5,23.5
		c36.4,1.7,71.1-3.4,101.9-24.6c9.8-6.7,18.5-14.6,24.1-25.4C874.7,677.7,873.8,678.3,872.9,678.6z"/>
</g>
</svg>
