<?xml version="1.0" encoding="utf-8"?>
<!-- Generator: Adobe Illustrator 23.0.0, SVG Export Plug-In . SVG Version: 6.00 Build 0)  -->
<svg version="1.1" id="Layer_1" xmlns="http://www.w3.org/2000/svg" xmlns:xlink="http://www.w3.org/1999/xlink" x="0px" y="0px"
	 viewBox="0 0 90 90" style="enable-background:new 0 0 90 90;" xml:space="preserve">
<style type="text/css">
	.st0{fill:#E2E0DF;}
</style>
<g>
	<path class="st0" d="M49.9,20.8c-2.4-1-4.5-1-6.9,0c-8.7,3.7-17.6,7.4-26.3,11c0,2.2,0,4.3,0,6.5c3.7,0.2,4.2,2.4,4.1,5.7
		c-0.2,6.6-0.1,13.2-0.1,19.8c0,1.6-0.1,3.2,1.2,4.5c1,1,2.2,1.8,3.6,1.3c1.4-0.5,0.7-1.9,0.7-2.8c0.1-6.1,0.1-12.2,0-18.2
		c-0.1-2.3,0.6-3.1,3-3.1c11.6,0.1,23.2,0.1,34.8,0c2.7,0,3.1,1.1,3.1,3.4c-0.1,5.9-0.1,11.9,0,17.8c0,1.1-0.7,2.6,1.1,3
		c1.5,0.3,2.6-0.5,3.5-1.5c1.1-1.3,1-2.8,1-4.2c0-7,0-14,0-21.1c0-1.3-0.6-2.8,0.8-3.7c0-3,0-5.9,0-8.9C65.5,27,57.6,23.9,49.9,20.8
		z M32.9,39.1c-0.6,0-1.3,0-2.2,0c-1.2-0.2-2.9,0.6-4.1-0.6c-0.9-0.9-0.5-2.3-0.3-3.5c0.2-1.1,1.1-1,1.9-1c1.6,0,3.2,0,4.8,0
		c1.7,0,3.1-0.1,3.2,2.3C36.3,39.1,34.8,39.2,32.9,39.1z M51.5,37.5c0,1.2-0.8,1.5-1.9,1.5c-1.6,0-3.2-0.1-4.8,0
		c-2,0.1-3.2-0.2-3.2-2.8c0-2.6,1.5-2.3,3.2-2.3c0.6,0,1.4,0,2.2,0c1.2,0.2,2.8-0.5,4.1,0.4C52.1,35.3,51.5,36.5,51.5,37.5z
		 M63.6,39.1c-0.6,0-1.3,0-2.2,0c-1.2-0.2-3,0.6-4-0.6c-0.6-0.7-0.3-2-0.3-3.1c0.1-1.3,1.1-1.2,2.1-1.2c1.5,0,2.9,0,4.4,0
		c1.8,0,3.4-0.2,3.3,2.5C67,39.3,65.4,39.2,63.6,39.1z"/>
	<path class="st0" d="M38.5,60.1c-2.8-0.6-2.3,1.9-3.8,4.4c-0.1-3.5-0.9-5.3-3.5-4.2c-2,0.9-1.1,3.1-1.2,4.7
		c-0.1,1.5-0.6,3.3,1.4,4.2c4.7,2.2,8.9-0.2,8.7-5.2C40.1,62.6,40.9,60.6,38.5,60.1z"/>
	<path class="st0" d="M59.4,61.1c-0.4,0.6,0.2,1.9-1.5,2c0-1.5,0.2-3.4-2.3-3.2c-2.4,0.2-2.2,1.9-2.3,3.6c0,0.6,0,1.4,0,2
		c0.1,1.5-0.3,3.4,1.6,3.6c2.8,0.3,6.2,1.5,8-0.7c1.5-1.9,1.2-5.3,0-7.7C62.4,59.6,60.5,59.4,59.4,61.1z"/>
	<path class="st0" d="M50.4,58.1c2.4-0.3,5.6,1.5,7-1.3c0.9-1.7,0.2-4.2,0.2-6.3c-0.1-0.8-1.1-1.1-1.9-1.1c-0.7,0-1.2,0.4-1.5,1.1
		c-0.2,0.9,0,1.9-1.4,2.3c-0.2-0.2-0.6-0.5-0.6-0.8c-0.3-1.3-0.2-3-2.2-2.7c-1.9,0.2-2,1.9-2,3.4c0,1,0,1.9,0.1,2.8
		C48,57.1,48.6,58.4,50.4,58.1z"/>
	<path class="st0" d="M45.4,50.3c-0.3-0.6-0.9-1-1.6-1.1c-0.9-0.1-1.5,0.2-1.8,1.2c-0.2,0.8,0.2,2.2-1.2,2.1
		c-1.3-0.1-0.7-1.5-1.1-2.3c-0.9-1.8-2.6-1.5-3.2-0.2c-0.9,2.1-0.8,4.5-0.1,6.7c0.6,2,2.8,1,4,1.3C45.1,58.2,47.4,54.2,45.4,50.3z"
		/>
	<path class="st0" d="M49.8,60.4c-1.3-0.2-2,0.3-2.1,1.8c0,0.6-0.1,1.5-1,1.5c-0.9,0-1.1-0.7-1.1-1.5c-0.1-1.1-0.4-1.8-1.7-1.8
		c-0.7,0-1.6,0.2-1.6,0.9c-0.2,2.1-0.5,4.4,0,6.4c0.5,2.1,2.8,0.9,4,1.3c5.3,0,5.8-0.6,5-6.2C51.2,61.7,51.2,60.6,49.8,60.4z"/>
</g>
</svg>
