<?xml version="1.0" encoding="utf-8"?>
<!-- Generator: Adobe Illustrator 23.0.0, SVG Export Plug-In . SVG Version: 6.00 Build 0)  -->
<svg version="1.1" id="Layer_1" xmlns="http://www.w3.org/2000/svg" xmlns:xlink="http://www.w3.org/1999/xlink" x="0px" y="0px"
	 viewBox="0 0 90 90" style="enable-background:new 0 0 90 90;" xml:space="preserve">
<style type="text/css">
	.st0{fill:#E2E0DF;}
</style>
<g>
	<path class="st0" d="M26,58c1.6-5.5,4.9-7.9,10.6-6.8c0.7,0.2,1.9,0.6,2.4-0.6C35,45,27.7,45.5,24.6,51.5c-2.6,5-4.5,10.5-7.9,15.1
		c0,0.8,0,1.6,0,2.4c1.5,1.4,3.5,1.3,5.3,1.3c15.3,0,30.7,0,46,0c1.9,0,3.8,0.1,5.3-1.3c0-1.4,0-2.7,0-4c-16.6,0-33.3,0-50.6,0
		C24,62.3,25.4,60.2,26,58z"/>
	<path class="st0" d="M71.5,50.7c-1-2.1-1.9-4-4.9-3.6c-3.5,0.4-7.6-1.1-9.5,4.2c2,0,3.9,0.2,5.7-0.1c3.2-0.4,4.9,0.7,6.1,3.7
		c1.2,2.9,2.3,5.9,4.4,8.5c0-3.2,0-6.5,0-9.7C72.3,52.9,72.1,51.7,71.5,50.7z"/>
	<path class="st0" d="M47.1,56.9c0.8,1.9,1.9,0.9,2.5-0.4c1.9-4.5,5.3-7.8,8.4-11.3c2.8-3.2,4.4-6.7,4.5-10.9
		c0.2-7.8-6.1-14.3-13.8-14.6c-5.8-0.2-10.2,2.3-13,7.4c-3,5.4-2.7,10.9,0.9,16C40.1,47.8,44.7,51.5,47.1,56.9z M48.5,26.4
		c4.1,0.2,7.2,3.6,7.2,7.7c-0.1,4.1-3.4,7.5-7.5,7.4c-4,0-7.4-3.4-7.4-7.5C40.8,29.7,44.3,26.2,48.5,26.4z"/>
</g>
</svg>
