<?xml version="1.0" encoding="utf-8"?>
<!-- Generator: Adobe Illustrator 23.0.0, SVG Export Plug-In . SVG Version: 6.00 Build 0)  -->
<svg version="1.1" id="Layer_1" xmlns="http://www.w3.org/2000/svg" xmlns:xlink="http://www.w3.org/1999/xlink" x="0px" y="0px"
	 viewBox="0 0 1047 207.5" style="enable-background:new 0 0 1047 207.5;" xml:space="preserve">
<style type="text/css">
	.st0{fill:#00678D;}
	.st1{fill:#E2E0DF;}
</style>
<g>
	<path class="st0" d="M324.7,123.5c0.1,0.8,0.1,1.6,0.2,2.5c1.1,9-2.6,15.3-11,18.7c-5.7,2.3-11.7,2.9-17.8,3.1
		c-13.3,0.3-26.5-1.6-39.5-4.3c-29.3-6.2-58.5-12.2-87.8-18.3c-20.5-4.2-41.1-8.4-61-15.1C85,102.5,62.4,94.5,39.4,87.6
		c-1-0.3-1.9-1-3-0.4c21.7,10.5,43.5,20.4,65.6,29.9c43.8,18.8,88.9,34.2,135.1,45.9c21.3,5.4,42.7,7.3,64.5,2.7
		c11.8-2.5,21.1-7.7,25-19.9C329,138.1,329.1,130.7,324.7,123.5z"/>
	<path class="st0" d="M208.9,195.9c-35.5-18.4-71-36.7-106.6-55.1c-27.1-14-54.1-27.9-81.2-41.9c-1.1-0.9-2.3-1.6-3.9-1.6
		c1.1,0.7,2.3,1.4,3.4,2c45.8,29,91.6,58.1,138,87.4c-20.7,2.9-40.6,5.7-60.5,8.5c0,0.1,0,0.3,0,0.4c37.2,0.4,74.4,0.8,111.6,1.1
		C209.5,196.2,209.2,196,208.9,195.9z"/>
	<path class="st0" d="M303.6,167.4c-8.7,3.1-17.6,4.5-26.8,4.8c-17.2,0.6-34-1.9-50.7-5.8c-15.4-3.5-30.3-8.4-45.1-13.8
		c-1.3-0.7-2.7-1.4-4.3-1.1c1.2,0.5,2.5,1.1,3.7,1.6c16.7,8.2,33.6,16.1,50.9,23c10.3,4.1,20.8,7.2,32,7.7
		c11.9,0.6,23.3-1.1,33.4-8.1c3.2-2.2,6.1-4.8,7.9-8.3C304.2,167.1,303.9,167.3,303.6,167.4z"/>
	<path class="st0" d="M44.6,62.6c0.7,4.1,1,8.4,0.7,12.6c-6.8,0.3-13.6,0.5-20.4,0.8c1.3,3.8,5.6,5.4,9.5,6.6
		c77.9,24.2,157.1,45.2,237.8,57.2C217.3,111.6,160.8,83,99.4,77c-1-0.1-2.2-0.2-2.8-1c-0.5-0.6-0.6-1.5-0.7-2.3
		c-0.5-7.1-0.4-14.3,0.3-21.4c0.2-1.6,0.4-3.2,1-4.7c2.6-5.8,10.3-6.8,16.7-6.9c-1.5,8.3-1.8,16.8-1,25.2c0.1,0.9,0.2,1.8,0.8,2.5
		c0.7,0.8,2,1,3.1,1.1c50.9,4.3,96.8,30.7,140.7,56.8c-15.5-24-33.6-46.2-54-66.2c19.3,16,38.5,32,57.8,48
		c10.1,8.4,21.4,17.2,34.6,16.8c3.7-0.1,7.5-1.1,10.3-3.6c6.5-6,3.2-15.8,1.5-23.2l-6.3-20.6c-0.2-1-0.6-1.8-1.1-2.6
		c0.5,0.7,0.8,1.6,1.6,2c7.2,11.4,13,23.7,19.1,35.7c-12.5-32.4-30.2-64.2-58.2-84.7C235.5,8,200.3,0.7,166.8,4.5
		C153.9,6,141,9,128,8.6c-5.8-0.2-11.6-1-17.3,0.3c-5.4,1.2-10.1,4.3-14.7,7.3c-21.4,14-42.8,28-64.1,42C46.9,50.9,62,43.5,77,36.1
		c8.8-2.3,17.4-5.4,25.6-9.2c1.6-0.8,3.4-1.6,4.4-3.1c0.8-1.2,1.2-2.7,2.1-3.9c1.2-1.6,3.3-2.3,5.3-2.9c15.1-4.5,30.6-7.3,46.3-8.3
		c0.5,0,1.1-0.1,1.6,0.2c-11.9,1.9-23.6,5.1-34.8,9.5c17.8-0.9,35.8,6.7,47.4,20.2c-16.3-8-33.7-16.2-51.7-14.4
		c-9.7,1-18.8,4.8-27.8,8.7C73,42.6,50.8,52.7,29,63.7c-2.3,1.3-5,3.3-4.2,5.7C31.4,67.1,38,64.9,44.6,62.6z M289,66
		c14,41.3,11.5,48.8,1.6,49.1c-10,0.3-49.9-40.1-49.9-40.1S284.8,90.7,289,66z M173.2,30.8c-3.9-6.5-2.6-12.6,3.8-16.8
		c5.2-3.5,11.1-5.1,17.4-5c13.1,0.1,25.6,2.9,37.8,7.4c17.1,6.4,31.8,16.5,44.7,29.4c1.5,1.5,2.8,3.1,4,4.7c1.9,2.6,1.9,4-0.1,6.7
		c-1.9,2.5-4.6,3.7-7.6,4.4c-3.7,1-7.5,1.2-11.4,1.1c-23.7-1.2-46.9-4.8-68.5-15.5c-5.9-2.9-11.4-6.4-16.1-11.1
		C175.8,34.4,174.3,32.7,173.2,30.8z M79.7,51.7c0.1-0.7,0-1.5,1-1.8c4.2-1.3,8.4-2.7,12.9-4.2c-0.3,10.2,0.4,20,1.3,29.8
		c0.1,1.3,0,1.9-1.6,1.7c-4.1-0.4-8.3-0.6-12.4-0.8c-1.4-0.1-2-0.3-2.1-1.9C78.5,66.9,78.9,59.3,79.7,51.7z M64.9,56.4
		c0.1-0.9,0.5-1.3,1.3-1.5c2.9-1,5.8-1.9,8.7-3c1.6-0.6,1.6,0.2,1.6,1.4c0,3.5,0,7,0,10.4c0.1,0,0.2,0,0.3,0
		c0.2,3.6,0.4,7.3,0.8,10.9c0.1,1.4-0.3,1.7-1.6,1.6c-3.4-0.2-6.8-0.3-10.2-0.4c-1.3,0-1.9-0.3-1.9-1.8
		C63.8,68.1,64.2,62.2,64.9,56.4z M54,68.4c0-1,0.1-2,0.1-3c0.4-7.3,0.7-7.6,8.2-9.1c-0.3,6-0.1,11.9,0.4,17.8
		c0.1,1.1-0.2,1.6-1.3,1.4c-0.1,0-0.2,0-0.2,0C53.9,75.8,53.9,75.8,54,68.4z M46.4,62.6c0.1-0.7,0.4-1,1-1.2c1.8-0.6,3.5-1.2,5.6-2
		c0,5.2-0.2,10,0.4,14.8c0,0.3,0.1,0.9,0,0.9c-1.9,0.7-3.9,0.1-5.8,0.3c-1.3,0.1-1.3-1-1.3-1.7C45.8,70,46,66.3,46.4,62.6z"/>
</g>
<path class="st1" d="M382,25.5c1.6-0.5,3.1-1.2,4.4-2c1.2-0.8,2.2-1.7,3.1-2.7c0.9-1,1.5-2.1,1.9-3.3c0.4-1.2,0.6-2.5,0.6-3.8
	c0-2.1-0.3-4-1.1-5.7c-0.7-1.7-1.8-3.2-3.3-4.3c-1.5-1.2-3.4-2.1-5.8-2.7S376.5,0,373.2,0h-16.9v52.7H375c2.9,0,5.6-0.3,7.9-1.1
	c2.3-0.7,4.2-1.7,5.8-3.1c1.5-1.3,2.8-2.9,3.6-4.7c0.9-1.9,1.2-3.9,1.2-6.1c0-3.3-1-5.9-2.9-8C388.7,27.8,385.8,26.3,382,25.5z
	 M363.5,5.6h9.7c3.9,0,6.9,0.7,8.7,2.1s2.8,3.8,2.8,6.9c0,1.3-0.3,2.6-0.7,3.7c-0.5,1.1-1.2,2.1-2.1,2.8s-2.2,1.4-3.7,1.9
	c-1.5,0.4-3.3,0.7-5.2,0.7h-9.4L363.5,5.6L363.5,5.6z M385.9,41.4c-0.4,1.2-1.1,2.1-2.1,3s-2.1,1.5-3.6,2s-3.3,0.7-5.2,0.7h-11.4
	V28.7H375c3.9,0,6.9,0.8,8.7,2.4c2,1.5,2.9,3.8,2.9,6.4C386.6,38.9,386.4,40.2,385.9,41.4z"/>
<path class="st1" d="M446,7.5c-2.3-2.4-5.1-4.3-8.2-5.6s-6.8-2-10.6-2c-3.9,0-7.4,0.7-10.6,2c-3.3,1.3-5.9,3.2-8.2,5.6
	c-2.3,2.4-4,5.2-5.3,8.6c-1.3,3.3-1.9,6.9-1.9,10.9s0.6,7.6,1.9,10.9c1.3,3.3,3,6.2,5.3,8.6c2.3,2.4,5.1,4.2,8.2,5.6
	c3.2,1.3,6.7,2,10.6,2c3.9,0,7.5-0.7,10.6-2c3.2-1.3,6-3.2,8.2-5.6c2.3-2.4,4-5.2,5.3-8.6c1.3-3.3,1.9-6.9,1.9-10.9
	s-0.6-7.6-1.9-10.9C450,12.9,448.2,9.9,446,7.5z M444.6,35.7c-0.9,2.6-2.1,4.7-3.8,6.5c-1.6,1.8-3.6,3.2-5.9,4.1
	c-2.3,0.9-4.9,1.5-7.7,1.5c-2.8,0-5.4-0.5-7.7-1.5c-2.3-0.9-4.3-2.3-5.9-4.1c-1.6-1.8-2.9-3.9-3.8-6.5c-0.9-2.6-1.3-5.5-1.3-8.7
	s0.4-6.2,1.3-8.7c0.9-2.6,2.1-4.7,3.8-6.5c1.6-1.8,3.6-3.2,5.9-4.1c2.3-0.9,4.9-1.5,7.7-1.5c2.8,0,5.4,0.5,7.7,1.5
	c2.3,0.9,4.3,2.3,5.9,4.1c1.6,1.8,2.9,3.9,3.8,6.5c0.9,2.6,1.3,5.5,1.3,8.7S445.4,33.1,444.6,35.7z"/>
<path class="st1" d="M504.8,7.5c-2.3-2.4-5.1-4.3-8.2-5.6s-6.8-2-10.6-2s-7.4,0.7-10.6,2s-5.9,3.2-8.2,5.6c-2.3,2.4-4,5.2-5.3,8.6
	s-1.9,6.9-1.9,10.9s0.6,7.6,1.9,10.9c1.3,3.3,3,6.2,5.3,8.6c2.3,2.4,5.1,4.2,8.2,5.6c3.2,1.3,6.7,2,10.6,2c3.9,0,7.5-0.7,10.6-2
	c3.2-1.3,6-3.2,8.2-5.6c2.3-2.4,4-5.2,5.3-8.6c1.3-3.3,1.9-6.9,1.9-10.9s-0.6-7.6-1.9-10.9C508.9,12.8,507.1,9.9,504.8,7.5z
	 M503.4,35.7c-0.9,2.6-2.1,4.7-3.8,6.5s-3.6,3.2-5.9,4.1c-2.3,0.9-4.9,1.5-7.7,1.5c-2.8,0-5.4-0.5-7.7-1.5c-2.3-0.9-4.3-2.3-5.9-4.1
	c-1.6-1.8-2.9-3.9-3.8-6.5c-0.9-2.6-1.3-5.5-1.3-8.7s0.4-6.2,1.3-8.7c0.9-2.6,2.1-4.7,3.8-6.5c1.6-1.8,3.6-3.2,5.9-4.1
	c2.3-0.9,4.9-1.5,7.7-1.5c2.8,0,5.4,0.5,7.7,1.5c2.3,0.9,4.3,2.3,5.9,4.1s2.9,3.9,3.8,6.5c0.9,2.6,1.3,5.5,1.3,8.7
	S504.2,33.1,503.4,35.7z"/>
<path class="st1" d="M542,26.1c-0.5-0.4-1.1-0.8-1.8-1c0.5-0.3,1-0.6,1.5-0.9c0.4-0.4,0.9-0.9,1.5-1.5L563.3,0h-6.1
	c-0.8,0-1.5,0.2-2,0.4s-1,0.7-1.5,1.3l-17.6,19.9c-0.5,0.6-1,0.9-1.5,1.2c-0.5,0.3-1.3,0.3-2.2,0.3h-2.7V0h-7.1v52.8h7.1V28.6h3.3
	c0.6,0,1.1,0,1.5,0.1c0.4,0.1,0.8,0.2,1.1,0.3c0.3,0.2,0.6,0.3,0.9,0.5s0.5,0.4,0.8,0.8l18.3,21c0.2,0.3,0.4,0.4,0.6,0.6
	c0.2,0.2,0.4,0.3,0.7,0.5c0.3,0.1,0.5,0.3,0.9,0.3c0.3,0.1,0.7,0.1,1.2,0.1h6.2l-21-25C543.2,27.2,542.6,26.6,542,26.1z"/>
<path class="st1" d="M349.8,78.6l18.6,29.6v20.7h3.7v-20.7l18.6-29.6h-3.2c-0.3,0-0.6,0.1-0.8,0.3c-0.3,0.2-0.4,0.4-0.5,0.7
	l-14.4,23.1c-0.3,0.5-0.6,1.1-0.9,1.6c-0.3,0.5-0.4,1-0.7,1.5c-0.2-0.5-0.4-1-0.7-1.5c-0.3-0.5-0.5-1-0.9-1.6l-14.4-23.1
	c-0.2-0.3-0.4-0.5-0.6-0.7s-0.4-0.3-0.8-0.3H349.8"/>
<path class="st1" d="M434.5,85c-2.1-2.2-4.6-4-7.5-5.2c-2.9-1.2-6.2-1.8-9.8-1.8c-3.5,0-6.8,0.6-9.7,1.9c-2.9,1.2-5.5,3-7.5,5.2
	c-2.1,2.2-3.8,5-5,8.1c-1.2,3.2-1.7,6.7-1.7,10.5c0,3.9,0.6,7.5,1.7,10.6c1.1,3.2,2.8,5.8,5,8.1c2.1,2.2,4.6,3.9,7.5,5.2
	c2.9,1.2,6.2,1.8,9.7,1.8c3.6,0,6.9-0.6,9.8-1.8c2.9-1.2,5.5-2.9,7.5-5.2c2.1-2.2,3.8-5,4.9-8.1c1.2-3.2,1.7-6.7,1.7-10.6
	c0-3.9-0.6-7.4-1.7-10.5C438.3,90,436.7,87.2,434.5,85z M436,113.1c-0.9,2.8-2.3,5.1-4.1,7.1s-3.9,3.4-6.4,4.5
	c-2.6,1-5.2,1.5-8.3,1.5c-3,0-5.7-0.5-8.2-1.5c-2.5-1-4.6-2.5-6.4-4.5c-1.8-2-3.2-4.3-4.2-7.1c-0.9-2.8-1.5-5.9-1.5-9.5
	c0-3.5,0.5-6.7,1.5-9.4c0.9-2.8,2.4-5.1,4.2-7.1c1.8-2,3.9-3.4,6.4-4.5c2.5-1,5.2-1.5,8.2-1.5c3,0,5.8,0.5,8.3,1.5
	c2.5,1,4.6,2.5,6.4,4.5c1.8,2,3.2,4.3,4.1,7.1s1.5,6,1.5,9.4C437.4,107.2,436.9,110.4,436,113.1z"/>
<path class="st1" d="M487.1,109.4c0,2.3-0.3,4.5-1,6.6c-0.7,2.1-1.7,3.8-3,5.3s-2.9,2.7-4.9,3.5c-1.9,0.9-4.1,1.3-6.5,1.3
	s-4.5-0.4-6.5-1.3c-1.9-0.9-3.5-2.1-4.8-3.5c-1.3-1.5-2.3-3.3-3-5.3c-0.7-2.1-1-4.2-1-6.6V78.2h-3.7v31.1c0,2.7,0.4,5.4,1.3,7.8
	c0.9,2.4,2.1,4.5,3.8,6.3c1.6,1.8,3.7,3.2,6,4.2c2.4,1,5.1,1.5,8,1.5s5.6-0.5,8-1.5c2.4-1,4.4-2.4,6-4.2s2.9-3.9,3.8-6.3
	c0.9-2.4,1.3-5,1.3-7.8V78.2h-3.6V109.4L487.1,109.4z"/>
<path class="st1" d="M522.1,105.7c2.2-0.3,4.2-0.8,5.9-1.5c1.7-0.8,3.3-1.7,4.5-2.9s2.2-2.6,2.8-4.2c0.7-1.5,1-3.3,1-5.2
	c0-4.4-1.5-7.6-4.3-9.9c-2.8-2.2-7.2-3.3-13-3.3h-12.9v50.2h3.6v-22.8h6.6c0.9,0,1.7,0.1,2.1,0.3s0.9,0.6,1.3,1.1l16.1,20.4
	c0.3,0.3,0.5,0.6,0.8,0.7c0.3,0.1,0.6,0.3,0.9,0.3h3.2l-17.3-21.8C523.2,106.6,522.7,106.1,522.1,105.7z M518.6,103.4h-8.7V81.5h9.3
	c4.5,0,7.9,0.9,10.3,2.6c2.3,1.7,3.5,4.4,3.5,8c0,1.7-0.3,3.3-0.9,4.7c-0.6,1.4-1.5,2.6-2.8,3.6c-1.2,1-2.7,1.8-4.5,2.3
	C523,103.1,520.8,103.4,518.6,103.4z"/>
<polygon class="st1" points="348.3,160.7 365.4,160.7 365.4,207.5 372.6,207.5 372.6,160.7 389.7,160.7 389.7,154.7 348.3,154.7 "/>
<path class="st1" d="M419.2,184.3c2.1-0.4,3.9-1.1,5.5-2.1s3-2.1,4.1-3.3c1.1-1.3,2-2.7,2.6-4.4c0.6-1.6,0.9-3.3,0.9-5.2
	c0-2.2-0.3-4.3-1.1-6.1c-0.8-1.8-2-3.3-3.5-4.6c-1.5-1.3-3.6-2.2-6-2.9c-2.4-0.7-5.3-1-8.7-1H398v52.8h7.1v-22h5.4
	c0.9,0,1.7,0.2,2.2,0.4s0.9,0.7,1.4,1.3l13.7,18.9c0.6,1,1.5,1.5,2.8,1.5h6.3l-15.4-21C420.9,185.5,420.1,184.8,419.2,184.3z
	 M412.5,180.2H405v-20h7.8c4.1,0,7.2,0.8,9.3,2.4s3.1,3.9,3.1,7.1c0,1.5-0.3,3-0.8,4.3c-0.5,1.3-1.4,2.4-2.4,3.3
	c-1,0.9-2.4,1.6-3.9,2.1C416.4,180,414.6,180.2,412.5,180.2z"/>
<path class="st1" d="M459.7,154.7l-21.1,52.8h5.5c0.6,0,1.1-0.2,1.5-0.5c0.4-0.3,0.7-0.8,0.9-1.2l5-12.8h23.7l5,12.8
	c0.2,0.5,0.5,0.9,0.9,1.2c0.4,0.3,0.9,0.5,1.5,0.5h5.5L467,154.7H459.7z M453.6,188l8.3-21.4c0.3-0.6,0.5-1.4,0.8-2.2
	c0.3-0.9,0.5-1.8,0.8-2.8c0.5,2,1,3.7,1.5,5l8.3,21.5H453.6z"/>
<rect x="496.2" y="154.7" class="st1" width="7.1" height="52.8"/>
<path class="st1" d="M554,154.6V192c0,0.6,0,1.1,0,1.7s0.1,1.2,0.2,1.9l-30.6-39.8c-0.4-0.5-0.8-0.8-1-0.9c-0.3-0.2-0.8-0.3-1.5-0.3
	h-3.7v52.8h6.3v-37.6c0-0.5,0-1,0-1.6c0-0.6-0.1-1.2-0.1-1.8l30.6,39.8c0.3,0.4,0.8,0.8,1.1,1c0.4,0.2,0.9,0.3,1.5,0.3h3.6v-52.9
	H554L554,154.6z"/>
</svg>
