<?xml version="1.0" encoding="utf-8"?>
<!-- Generator: Adobe Illustrator 23.0.0, SVG Export Plug-In . SVG Version: 6.00 Build 0)  -->
<svg version="1.1" id="Layer_1" xmlns="http://www.w3.org/2000/svg" xmlns:xlink="http://www.w3.org/1999/xlink" x="0px" y="0px"
	 viewBox="0 0 1047 198" style="enable-background:new 0 0 1047 198;" xml:space="preserve">
<style type="text/css">
	.st0{fill:#E2E0DF;}
</style>
<g>
	<g>
		<g>
			<path class="st0" d="M22.1,32.2c1.4-0.4,2.6-1,3.7-1.7c1-0.7,1.9-1.5,2.6-2.3c0.7-0.9,1.2-1.8,1.6-2.9c0.4-1,0.5-2.1,0.5-3.2
				c0-1.8-0.3-3.4-1-4.9c-0.6-1.5-1.5-2.7-2.9-3.7c-1.3-1-2.9-1.8-5-2.3c-2.1-0.5-4.4-0.8-7.2-0.8H0v45.1h16
				c2.7-0.2,4.9-0.5,6.9-1.1s3.6-1.5,5-2.6c1.3-1.1,2.4-2.5,3.1-4c0.7-1.6,1-3.3,1-5.2c0-2.8-0.9-5.1-2.5-6.8
				C27.9,34.1,25.4,32.9,22.1,32.2z M6.3,15L6.3,15h8.3c3.4,0,5.9,0.6,7.5,1.8c1.6,1.2,2.4,3.2,2.4,5.9c0,1.1-0.2,2.2-0.6,3.2
				s-1,1.8-1.8,2.4c-0.8,0.7-1.9,1.2-3.2,1.6c-1.2,0.4-2.8,0.6-4.5,0.6H6.3V15z M25.4,45.7c-0.4,1-1,1.8-1.8,2.6
				c-0.8,0.7-1.8,1.3-3.1,1.7c-1.2,0.4-2.8,0.6-4.5,0.6H6.4v-0.1V34.8h9.7c3.4,0,5.9,0.7,7.5,2.1c1.7,1.3,2.5,3.2,2.5,5.5
				C26,43.6,25.9,44.7,25.4,45.7z"/>
			<path class="st0" d="M76.8,16.8c-2-2.1-4.3-3.7-7-4.8s-5.8-1.7-9.1-1.7s-6.3,0.6-9.1,1.7s-5.1,2.7-7,4.8s-3.4,4.5-4.5,7.3
				C39,27,38.5,30,38.5,33.4c0,3.4,0.5,6.5,1.6,9.3s2.5,5.2,4.5,7.3s4.3,3.6,7,4.8c2.7,1.1,5.7,1.7,9.1,1.7c3.3,0,6.4-0.6,9.1-1.7
				c2.7-1.1,5.1-2.7,7-4.8c2-2.1,3.4-4.5,4.5-7.3c1.1-2.9,1.6-5.9,1.6-9.3c0-3.4-0.5-6.5-1.6-9.3C80.2,21.3,78.7,18.8,76.8,16.8z
				 M75.7,40.8c-0.7,2.2-1.8,4-3.2,5.6c-1.4,1.5-3.1,2.7-5.1,3.5s-4.2,1.2-6.6,1.2c-2.4,0-4.6-0.4-6.6-1.2s-3.7-2-5.1-3.5
				c-1.4-1.5-2.5-3.4-3.2-5.6c-0.7-2.2-1.1-4.7-1.1-7.5s0.3-5.3,1.1-7.5c0.7-2.2,1.8-4,3.2-5.6c1.4-1.5,3.1-2.7,5.1-3.5
				s4.2-1.2,6.6-1.2c2.4,0,4.6,0.4,6.6,1.2s3.7,2,5.1,3.5s2.5,3.4,3.2,5.6s1.1,4.7,1.1,7.5C76.8,36.1,76.4,38.6,75.7,40.8z"/>
			<path class="st0" d="M127.2,16.7c-1.9-2-4.3-3.7-7-4.8c-2.7-1.1-5.8-1.7-9.1-1.7c-3.3,0-6.3,0.6-9.1,1.7c-2.8,1.1-5.1,2.7-7,4.8
				s-3.4,4.5-4.5,7.3c-1.1,2.9-1.6,5.9-1.6,9.3c0,3.4,0.5,6.5,1.6,9.3c1.1,2.9,2.6,5.3,4.5,7.3c2,2.1,4.3,3.6,7,4.8
				c2.7,1.1,5.7,1.7,9.1,1.7c3.3,0,6.4-0.6,9.1-1.7s5.1-2.7,7-4.8c1.9-2,3.4-4.4,4.5-7.3c1.1-2.9,1.6-5.9,1.6-9.3
				c0-3.4-0.5-6.5-1.6-9.3C130.6,21.1,129.1,18.7,127.2,16.7z M125.9,40.7c-0.7,2.2-1.8,4-3.2,5.6c-1.4,1.6-3.1,2.7-5.1,3.5
				S113.4,51,111,51s-4.6-0.4-6.6-1.2s-3.7-2-5.1-3.5s-2.5-3.4-3.2-5.6S95,36,95,33.2s0.4-5.3,1.1-7.5s1.8-4,3.2-5.6
				c1.4-1.5,3.1-2.7,5.1-3.5s4.2-1.2,6.6-1.2s4.6,0.4,6.6,1.2c2,0.8,3.7,2,5.1,3.5s2.5,3.4,3.2,5.6s1.1,4.7,1.1,7.5
				S126.7,38.5,125.9,40.7z"/>
			<path class="st0" d="M160.5,34c-0.7-0.5-1.2-1-1.6-1.4c-0.4-0.4-1-0.7-1.5-0.9c0.4-0.2,0.9-0.5,1.2-0.8c0.4-0.4,0.8-0.7,1.2-1.2
				l17.4-19.5H172c-0.7,0-1.2,0.1-1.7,0.4c-0.5,0.3-0.9,0.6-1.3,1.1l-15,17c-0.4,0.5-0.9,0.8-1.3,1c-0.4,0.2-1.1,0.3-1.9,0.3h-2.3
				V10.2h-6.1v45.2h6.1V34.7h2.7c0.5,0,1,0,1.2,0.1c0.4,0.1,0.7,0.1,1,0.3s0.5,0.3,0.7,0.4c0.2,0.1,0.4,0.4,0.7,0.7l15.6,18
				c0.1,0.2,0.4,0.4,0.5,0.5s0.4,0.3,0.6,0.4c0.2,0.1,0.4,0.2,0.7,0.2c0.3,0.1,0.6,0.1,1,0.1h5.3L160.5,34z"/>
		</g>
		<g>
			<path class="st0" d="M34.8,75.6c-0.2,0.1-0.4,0.4-0.4,0.7L20.9,98.1c-0.3,0.4-0.6,1.1-0.8,1.5c-0.2,0.4-0.4,1-0.7,1.4
				c-0.1-0.4-0.4-1-0.7-1.4c-0.2-0.4-0.4-1-0.8-1.5l-13.6-22c-0.1-0.2-0.4-0.4-0.5-0.7c-0.2-0.1-0.5-0.2-0.8-0.2H0L17.5,103v19.6H21
				v-19.4l17.5-27.8h-3C35.2,75.3,35,75.5,34.8,75.6z"/>
			<path class="st0" d="M79.6,81.3c-2-2.1-4.4-3.7-7.2-5c-2.8-1.1-5.8-1.7-9.2-1.7c-3.3,0-6.4,0.6-9.1,1.8c-2.8,1.1-5.2,2.9-7.1,5
				c-2,2.1-3.5,4.7-4.7,7.7c-1.1,3-1.6,6.3-1.6,9.9s0.5,7,1.6,10s2.6,5.5,4.7,7.7c2,2.1,4.4,3.7,7.1,5c2.8,1.1,5.8,1.7,9.1,1.7
				c3.4,0,6.5-0.6,9.2-1.7s5.2-2.8,7.2-5c2-2.1,3.5-4.7,4.6-7.7s1.7-6.3,1.7-10c0-3.6-0.5-6.9-1.7-9.9C83.2,86,81.6,83.4,79.6,81.3z
				 M81,107.7c-0.9,2.6-2.2,4.8-3.8,6.7c-1.7,1.9-3.6,3.2-6.1,4.2c-2.4,1-4.9,1.4-7.8,1.4c-2.9,0-5.4-0.4-7.7-1.4s-4.4-2.3-6-4.2
				c-1.7-1.9-3-4.1-4-6.7c-0.9-2.6-1.3-5.6-1.3-8.9s0.4-6.3,1.3-8.9c0.9-2.6,2.3-4.8,4-6.7c1.6-1.9,3.7-3.2,6-4.2s5-1.4,7.7-1.4
				c2.9,0,5.5,0.4,7.8,1.4c2.3,1,4.4,2.3,6.1,4.2c1.6,1.9,3,4.1,3.8,6.7s1.3,5.6,1.3,8.9C82.4,102.2,82,105.2,81,107.7z"/>
			<path class="st0" d="M128.9,104.2c0,2.2-0.3,4.3-1,6.2c-0.7,1.9-1.7,3.5-2.9,5c-1.2,1.4-2.8,2.5-4.6,3.3
				c-1.8,0.8-3.9,1.2-6.2,1.2s-4.3-0.4-6.2-1.2c-1.8-0.8-3.3-2-4.5-3.3s-2.2-3.1-2.9-5c-0.7-1.9-1-4-1-6.2V74.9h-3.5v29.3
				c0,2.5,0.4,5.1,1.2,7.4c1.2,2.3,2.4,4.3,4,5.9s3.5,3,5.6,4c2.3,1,4.7,1.4,7.5,1.4s5.3-0.4,7.5-1.4c2.3-1,4.1-2.3,5.6-4
				c1.5-1.7,2.8-3.6,3.5-5.9c0.8-2.3,1.2-4.7,1.2-7.4V74.9h-3.4L128.9,104.2L128.9,104.2z"/>
			<path class="st0" d="M163.5,102.1c-0.3-0.4-0.8-1-1.3-1.3c2.1-0.2,4-0.8,5.6-1.4c1.6-0.8,3.1-1.6,4.3-2.8c1.2-1.1,2.1-2.4,2.6-4
				c0.7-1.4,1-3.2,1-5c0-4.1-1.3-7.1-4.1-9.2c-2.6-2.1-6.8-3.2-12.2-3.2h-12.1v47.3h3.4V101h6.2c0.9,0,1.6,0.1,2,0.3
				c0.4,0.2,0.9,0.6,1.2,1.1l15.2,19.1c0.1,0.3,0.3,0.5,0.7,0.7c0.2,0.1,0.5,0.2,0.9,0.2h3L163.5,102.1z M158.7,98.7h-8.3V78h8.7
				c4.2,0,7.4,0.8,9.7,2.4c2.2,1.7,3.3,4.1,3.3,7.5c0,1.7-0.3,3.2-0.9,4.4c-0.5,1.3-1.4,2.4-2.6,3.4c-1.1,1-2.5,1.6-4.2,2.2
				C162.8,98.3,160.8,98.7,158.7,98.7z"/>
		</g>
		<g>
			<polygon class="st0" points="0,147.6 14.7,147.6 14.7,187.7 20.8,187.7 20.8,147.6 35.4,147.6 35.4,142.5 0,142.5 			"/>
			<path class="st0" d="M60.7,167.8c1.8-0.4,3.3-1,4.7-1.8c1.4-0.8,2.6-1.8,3.5-2.9c1-1.1,1.7-2.3,2.2-3.7s0.7-2.9,0.7-4.5
				c0-1.9-0.3-3.7-1-5.2s-1.7-2.9-3-4s-3.1-1.9-5.1-2.5s-4.5-0.9-7.4-0.9H42.5v45.2h6.1v-18.8h4.6c0.8,0,1.5,0.1,1.9,0.4
				c0.4,0.2,0.8,0.6,1.2,1.1L68,186.3c0.5,0.9,1.3,1.3,2.4,1.3h5.4l-13.2-18C62.1,168.8,61.5,168.2,60.7,167.8z M54.9,164.3h-6.4
				v-17.1h6.7c3.5,0,6.2,0.7,7.9,2.1c1.8,1.4,2.6,3.4,2.6,6.1c0,1.3-0.2,2.6-0.7,3.7c-0.4,1.1-1.2,2.1-2.1,2.8
				c-0.9,0.8-2.1,1.4-3.4,1.8C58.3,164.1,56.8,164.3,54.9,164.3z"/>
			<path class="st0" d="M95.3,142.5l-18,45.2H82c0.5,0,1-0.1,1.3-0.4s0.6-0.7,0.7-1l4.3-10.9h20.3l4.3,10.9c0.1,0.4,0.4,0.7,0.7,1
				c0.4,0.3,0.8,0.4,1.3,0.4h4.7l-18-45.2H95.3z M90,171L90,171l7.1-18.4c0.2-0.5,0.4-1.2,0.7-1.9c0.2-0.7,0.4-1.5,0.7-2.4
				c0.4,1.7,0.9,3.2,1.3,4.3l7.1,18.4L90,171L90,171z"/>
			<rect x="126.5" y="142.5" class="st0" width="6.1" height="45.2"/>
			<path class="st0" d="M176,142.6v31.8c0,0.5,0,1,0,1.5s0.1,1,0.1,1.6l-26.2-34c-0.4-0.4-0.7-0.7-0.9-0.8s-0.7-0.2-1.2-0.2h-3.2
				v45.2h5.4v-32.1c0-0.4,0-0.9,0-1.4s-0.1-1-0.1-1.5l26.2,34c0.3,0.4,0.7,0.7,1,0.9c0.4,0.1,0.7,0.2,1.2,0.2h3.1v-45.2H176z"/>
		</g>
	</g>
</g>
<g>
	<path class="st0" d="M219.6,67.4c0.6,3.5,0.8,7,0.6,10.5c-5.7,0.2-11.4,0.4-17.1,0.6c1.1,3.2,4.7,4.5,7.9,5.5
		c65.3,20.3,131.7,37.9,199.3,47.9c-45.9-23.4-93.3-47.4-144.8-52.4c-0.9-0.1-1.8-0.2-2.4-0.9c-0.4-0.5-0.5-1.2-0.6-1.9
		c-0.4-6-0.3-12,0.3-17.9c0.1-1.3,0.3-2.7,0.9-3.9c2.1-4.9,8.6-5.7,14-5.8c-1.2,7-1.5,14.1-0.9,21.2c0.1,0.7,0.2,1.5,0.7,2.1
		c0.6,0.7,1.6,0.8,2.6,0.9c42.6,3.6,81.2,25.8,117.9,47.6c-13-20.1-28.2-38.7-45.2-55.5c16.1,13.4,32.3,26.9,48.4,40.3
		c8.5,7,18,14.4,29,14.1c3.1-0.1,6.3-0.9,8.6-3c5.5-5.1,2.7-13.3,1.3-19.5L434.8,80c-0.1-0.8-0.5-1.5-0.9-2.2
		c0.4,0.6,0.6,1.3,1.3,1.7c6,9.6,10.9,19.9,16,29.9c-10.4-27.2-25.3-53.8-48.8-71c-22.8-16.6-52.4-22.8-80.5-19.6
		c-10.8,1.2-21.6,3.8-32.5,3.5c-4.8-0.1-9.8-0.9-14.5,0.2c-4.5,1-8.5,3.6-12.3,6.1c-17.9,11.7-35.8,23.5-53.8,35.2
		c12.6-6.2,25.2-12.3,37.8-18.5c7.4-2,14.6-4.5,21.5-7.7c1.4-0.6,2.8-1.4,3.7-2.6c0.7-1,1-2.3,1.7-3.3c1-1.4,2.8-2,4.4-2.5
		c12.6-3.8,25.7-6.1,38.8-7c0.5,0,0.9-0.1,1.3,0.1c-10,1.6-19.8,4.3-29.2,8c14.9-0.8,30,5.6,39.8,16.9
		c-13.7-6.7-28.2-13.6-43.4-12.1c-8.1,0.8-15.8,4.1-23.3,7.3c-18.8,8.1-37.4,16.6-55.6,25.8c-1.9,0.9-4.1,2.6-3.4,4.6
		C208.5,71.2,214.1,69.3,219.6,67.4z M411.9,92.3c-5.2,0-9.4-4.2-9.4-9.4s4.2-9.4,9.4-9.4c5.2,0,9.4,4.2,9.4,9.4
		C421.4,88.1,417.2,92.3,411.9,92.3z M327.4,40.7c-3.2-5.5-2.1-10.6,3.2-14.1c4.4-2.9,9.3-4.3,14.6-4.2c11,0.1,21.5,2.4,31.7,6.2
		c14.4,5.3,26.7,13.9,37.5,24.6c1.2,1.2,2.3,2.6,3.4,4c1.6,2.1,1.6,3.4,0,5.6c-1.6,2.1-3.9,3.1-6.3,3.7c-3.1,0.8-6.3,1-9.5,0.9
		c-19.9-1-39.3-4.1-57.4-13c-4.9-2.4-9.5-5.4-13.5-9.3C329.5,43.8,328.4,42.4,327.4,40.7z M249,58.2c0.1-0.6,0-1.2,0.8-1.5
		c3.5-1.1,7.1-2.3,10.8-3.5c-0.3,8.5,0.4,16.7,1.1,25c0.1,1.1,0,1.6-1.4,1.5c-3.5-0.3-6.9-0.5-10.4-0.7c-1.2,0-1.7-0.3-1.7-1.6
		C248,71,248.3,64.6,249,58.2z M236.6,62.2c0.1-0.8,0.4-1.1,1.1-1.3c2.4-0.8,4.9-1.6,7.3-2.5c1.3-0.5,1.3,0.1,1.3,1.1
		c0,2.9,0,5.8,0,8.8c0.1,0,0.1,0,0.2,0c0.2,3.1,0.4,6.1,0.6,9.2c0.1,1.1-0.2,1.4-1.3,1.3c-2.8-0.2-5.7-0.3-8.5-0.3
		c-1.1,0-1.6-0.2-1.6-1.5C235.7,72,236.1,67.1,236.6,62.2z M227.5,72.3c0-0.8,0-1.7,0.1-2.5c0.3-6.1,0.6-6.4,6.9-7.6
		c-0.3,5-0.1,10,0.3,14.9c0.1,0.9-0.1,1.3-1.1,1.2c-0.1,0-0.1,0-0.2,0C227.4,78.5,227.4,78.5,227.5,72.3z M221.1,67.4
		c0.1-0.6,0.3-0.8,0.9-1c1.5-0.5,3-1,4.7-1.7c0,4.4-0.2,8.4,0.3,12.4c0,0.3,0.1,0.8,0,0.8c-1.6,0.6-3.3,0.1-4.9,0.2
		c-1.1,0.1-1.1-0.8-1.1-1.4C220.6,73.6,220.7,70.5,221.1,67.4z"/>
	<path class="st0" d="M454.4,118.5c0.1,0.7,0.1,1.4,0.2,2.1c0.9,7.5-2.2,12.8-9.2,15.7c-4.8,1.9-9.8,2.5-14.9,2.6
		c-11.2,0.2-22.2-1.3-33.1-3.6c-24.5-5.2-49.1-10.3-73.6-15.3c-17.2-3.5-34.5-7.1-51.1-12.6c-19.1-6.4-38.1-13.1-57.4-18.8
		c-0.8-0.2-1.6-0.8-2.5-0.4c18.1,8.8,36.5,17.1,55,25c36.7,15.8,74.5,28.6,113.3,38.5c17.9,4.5,35.8,6.1,54.1,2.3
		c9.9-2.1,17.7-6.4,21-16.7C458,130.7,458.1,124.5,454.4,118.5z"/>
	<path class="st0" d="M357.4,179.1c-29.8-15.4-59.5-30.8-89.3-46.2c-22.7-11.7-45.4-23.4-68.1-35.1c-0.9-0.7-2-1.3-3.3-1.3
		c1,0.6,1.9,1.1,2.9,1.7l0,0c38.4,24.3,76.8,48.7,115.6,73.3c-17.4,2.4-34.1,4.8-50.7,7.1c0,0.1,0,0.2,0,0.4
		c31.2,0.3,62.4,0.6,93.5,1C357.8,179.4,357.6,179.3,357.4,179.1z"/>
	<path class="st0" d="M436.7,155.3c-7.3,2.6-14.8,3.7-22.5,4c-14.4,0.5-28.5-1.6-42.5-4.9c-12.9-3-25.4-7.1-37.8-11.5
		c-1.1-0.6-2.2-1.2-3.6-0.9c1,0.5,2.1,0.9,3.1,1.4c14,6.9,28.2,13.5,42.7,19.2c8.6,3.4,17.5,6,26.8,6.5c10,0.5,19.6-0.9,28-6.8
		c2.7-1.9,5.1-4,6.6-7C437.2,155,437,155.2,436.7,155.3z"/>
</g>
</svg>
