<?xml version="1.0" encoding="utf-8"?>
<!-- Generator: Adobe Illustrator 23.0.0, SVG Export Plug-In . SVG Version: 6.00 Build 0)  -->
<svg version="1.1" id="Layer_1" xmlns="http://www.w3.org/2000/svg" xmlns:xlink="http://www.w3.org/1999/xlink" x="0px" y="0px"
	 viewBox="0 0 1120.7 193.2" style="enable-background:new 0 0 1120.7 193.2;" xml:space="preserve">
<style type="text/css">
	.st0{fill:#E2E0DF;}
</style>
<g>
	<path class="st0" d="M393.5,95.8c1.9-0.6,3.6-1.4,5.1-2.3c1.4-0.9,2.6-2,3.6-3.2s1.7-2.5,2.2-3.9s0.7-2.9,0.7-4.4
		c0-2.5-0.4-4.7-1.3-6.7c-0.8-2-2.1-3.7-3.9-5c-1.8-1.4-4-2.4-6.8-3.2s-6-1.1-9.8-1.1h-19.7v61.5h21.8c3.4,0,6.5-0.4,9.2-1.3
		c2.7-0.8,4.9-2,6.8-3.6c1.8-1.5,3.3-3.4,4.2-5.5c1-2.2,1.4-4.5,1.4-7.1c0-3.8-1.2-6.9-3.4-9.3C401.4,98.4,398,96.7,393.5,95.8z
		 M372,72.5h11.3c4.6,0,8,0.8,10.2,2.5s3.3,4.4,3.3,8c0,1.5-0.3,3-0.8,4.3c-0.6,1.3-1.4,2.4-2.5,3.3s-2.6,1.6-4.3,2.2
		c-1.7,0.5-3.8,0.8-6.1,0.8h-11V72.5H372z M398.1,114.3c-0.5,1.4-1.3,2.5-2.4,3.5s-2.5,1.8-4.2,2.3s-3.8,0.8-6.1,0.8h-13.3V99.5
		h13.3c4.6,0,8,0.9,10.2,2.8c2.3,1.8,3.4,4.4,3.4,7.5C398.9,111.4,398.7,112.9,398.1,114.3z"/>
	<path class="st0" d="M468.2,74.1c-2.7-2.8-5.9-5-9.6-6.5s-7.9-2.3-12.4-2.3s-8.6,0.8-12.4,2.3s-6.9,3.7-9.6,6.5s-4.7,6.1-6.2,10
		s-2.2,8.1-2.2,12.7s0.7,8.9,2.2,12.7c1.5,3.9,3.5,7.2,6.2,10s5.9,4.9,9.6,6.5c3.7,1.5,7.8,2.3,12.4,2.3c4.5,0,8.7-0.8,12.4-2.3
		c3.7-1.5,7-3.7,9.6-6.5c2.7-2.8,4.7-6.1,6.2-10s2.2-8.1,2.2-12.7s-0.7-8.9-2.2-12.7S470.8,76.9,468.2,74.1z M466.5,106.9
		c-1,3-2.5,5.5-4.4,7.6s-4.2,3.7-6.9,4.8s-5.7,1.7-9,1.7s-6.3-0.6-9-1.7s-5-2.7-6.9-4.8s-3.4-4.6-4.4-7.6s-1.5-6.4-1.5-10.2
		s0.5-7.2,1.5-10.2s2.5-5.5,4.4-7.6s4.2-3.7,6.9-4.8s5.7-1.7,9-1.7s6.3,0.6,9,1.7s5,2.7,6.9,4.8s3.4,4.6,4.4,7.6s1.5,6.4,1.5,10.2
		S467.5,103.9,466.5,106.9z"/>
	<path class="st0" d="M536.8,74.1c-2.7-2.8-5.9-5-9.6-6.5s-7.9-2.3-12.4-2.3s-8.6,0.8-12.4,2.3s-6.9,3.7-9.6,6.5s-4.7,6.1-6.2,10
		s-2.2,8.1-2.2,12.7s0.7,8.9,2.2,12.7c1.5,3.9,3.5,7.2,6.2,10s5.9,4.9,9.6,6.5c3.7,1.5,7.8,2.3,12.4,2.3c4.5,0,8.7-0.8,12.4-2.3
		s7-3.7,9.6-6.5c2.7-2.8,4.7-6.1,6.2-10s2.2-8.1,2.2-12.7s-0.7-8.9-2.2-12.7C541.5,80.2,539.5,76.9,536.8,74.1z M535.1,106.9
		c-1,3-2.5,5.5-4.4,7.6s-4.2,3.7-6.9,4.8s-5.7,1.7-9,1.7s-6.3-0.6-9-1.7s-5-2.7-6.9-4.8s-3.4-4.6-4.4-7.6s-1.5-6.4-1.5-10.2
		s0.5-7.2,1.5-10.2s2.5-5.5,4.4-7.6s4.2-3.7,6.9-4.8s5.7-1.7,9-1.7s6.3,0.6,9,1.7s5,2.7,6.9,4.8s3.4,4.6,4.4,7.6s1.5,6.4,1.5,10.2
		S536.1,103.9,535.1,106.9z"/>
	<path class="st0" d="M580.2,96.4c-0.6-0.5-1.3-0.9-2.1-1.2c0.6-0.3,1.2-0.7,1.7-1.1c0.5-0.5,1.1-1,1.7-1.7L605,65.9h-7.1
		c-0.9,0-1.7,0.2-2.3,0.5s-1.2,0.8-1.8,1.5l-20.5,23.2c-0.6,0.7-1.2,1.1-1.8,1.4s-1.5,0.4-2.6,0.4h-3.1v-27h-8.3v61.6h8.3V99.3h3.8
		c0.7,0,1.3,0,1.7,0.1c0.5,0.1,0.9,0.2,1.3,0.4c0.4,0.2,0.7,0.4,1,0.6s0.6,0.5,0.9,0.9l21.3,24.5c0.2,0.3,0.5,0.5,0.7,0.7
		s0.5,0.4,0.8,0.6c0.3,0.1,0.6,0.3,1,0.3c0.4,0.1,0.8,0.1,1.4,0.1h7.2l-24.5-29.2C581.5,97.6,580.8,96.9,580.2,96.4z"/>
	<path class="st0" d="M676,69.1c-0.3,0.2-0.5,0.5-0.6,0.8l-16.8,27c-0.4,0.6-0.7,1.3-1,1.9s-0.5,1.2-0.8,1.8
		c-0.2-0.6-0.5-1.2-0.8-1.8s-0.6-1.2-1-1.9l-16.8-27c-0.2-0.3-0.5-0.6-0.7-0.8s-0.5-0.3-0.9-0.3h-3.7l21.7,34.5v24.2h4.3v-24.2
		l21.7-34.5h-3.7C676.5,68.8,676.2,68.9,676,69.1z"/>
	<path class="st0" d="M731.7,76.4c-2.5-2.6-5.4-4.7-8.8-6.1c-3.4-1.4-7.2-2.1-11.4-2.1c-4.1,0-7.9,0.7-11.3,2.2
		c-3.4,1.4-6.4,3.5-8.8,6.1c-2.5,2.6-4.4,5.8-5.8,9.5s-2,7.8-2,12.3s0.7,8.7,2,12.4s3.3,6.8,5.8,9.5c2.5,2.6,5.4,4.6,8.8,6.1
		c3.4,1.4,7.2,2.1,11.3,2.1c4.2,0,8-0.7,11.4-2.1s6.4-3.4,8.8-6.1c2.5-2.6,4.4-5.8,5.7-9.5c1.4-3.7,2-7.8,2-12.4
		c0-4.5-0.7-8.6-2-12.3C736.1,82.3,734.2,79,731.7,76.4z M733.4,109.2c-1.1,3.3-2.7,6-4.8,8.3s-4.5,4-7.5,5.2s-6.1,1.8-9.7,1.8
		c-3.5,0-6.7-0.6-9.6-1.8c-2.9-1.2-5.4-2.9-7.5-5.2s-3.7-5-4.9-8.3c-1.1-3.3-1.7-6.9-1.7-11.1c0-4.1,0.6-7.8,1.7-11
		c1.1-3.3,2.8-6,4.9-8.3c2.1-2.3,4.6-4,7.5-5.2s6.1-1.8,9.6-1.8s6.8,0.6,9.7,1.8s5.4,2.9,7.5,5.2s3.7,5,4.8,8.3s1.7,7,1.7,11
		C735.1,102.3,734.5,106,733.4,109.2z"/>
	<path class="st0" d="M793,105.1c0,2.7-0.4,5.3-1.2,7.7s-2,4.4-3.5,6.2s-3.4,3.1-5.7,4.1c-2.2,1-4.8,1.5-7.6,1.5s-5.3-0.5-7.6-1.5
		c-2.2-1-4.1-2.4-5.6-4.1s-2.7-3.8-3.5-6.2s-1.2-4.9-1.2-7.7V68.8h-4.3v36.3c0,3.2,0.5,6.3,1.5,9.1s2.5,5.3,4.4,7.4s4.3,3.7,7,4.9
		c2.8,1.2,5.9,1.8,9.3,1.8s6.5-0.6,9.3-1.8s5.1-2.8,7-4.9s3.4-4.5,4.4-7.4c1-2.8,1.5-5.8,1.5-9.1V68.8H793V105.1L793,105.1z"/>
	<path class="st0" d="M833.9,100.5c2.6-0.3,4.9-0.9,6.9-1.8s3.8-2,5.3-3.4s2.6-3,3.3-4.9c0.8-1.8,1.2-3.9,1.2-6.1
		c0-5.1-1.7-8.9-5-11.5s-8.4-3.9-15.2-3.9h-15v58.6h4.2v-26.6h7.7c1.1,0,2,0.1,2.5,0.4s1.1,0.7,1.5,1.3l18.8,23.8
		c0.3,0.4,0.6,0.7,0.9,0.8s0.7,0.3,1.1,0.3h3.7l-20.2-25.4C835.2,101.5,834.6,100.9,833.9,100.5z M829.8,97.8h-10.2V72.2h10.8
		c5.2,0,9.2,1,12,3c2.7,2,4.1,5.1,4.1,9.3c0,2-0.4,3.9-1.1,5.5s-1.8,3-3.3,4.2c-1.4,1.2-3.2,2.1-5.2,2.7S832.4,97.8,829.8,97.8z"/>
	<polygon class="st0" points="873.3,72.9 893.3,72.9 893.3,127.5 901.7,127.5 901.7,72.9 921.6,72.9 921.6,65.9 873.3,65.9 	"/>
	<path class="st0" d="M956,100.5c2.4-0.5,4.5-1.3,6.4-2.4s3.5-2.4,4.8-3.9s2.3-3.2,3-5.1s1-3.9,1-6.1c0-2.6-0.4-5-1.3-7.1
		c-0.9-2.1-2.3-3.9-4.1-5.4s-4.2-2.6-7-3.4s-6.2-1.2-10.1-1.2h-17.4v61.6h8.3v-25.7h6.3c1.1,0,2,0.2,2.6,0.5s1.1,0.8,1.6,1.5l16,22
		c0.7,1.2,1.8,1.8,3.3,1.8h7.4l-18-24.5C958,101.9,957.1,101.1,956,100.5z M948.2,95.8h-8.7V72.5h9.1c4.8,0,8.4,0.9,10.8,2.8
		s3.6,4.6,3.6,8.3c0,1.8-0.3,3.5-0.9,5s-1.6,2.8-2.8,3.8c-1.2,1.1-2.8,1.9-4.6,2.5C952.8,95.5,950.7,95.8,948.2,95.8z"/>
	<path class="st0" d="M1003.3,65.9l-24.6,61.6h6.4c0.7,0,1.3-0.2,1.8-0.6s0.8-0.9,1-1.4l5.8-14.9h27.7l5.8,14.9c0.2,0.6,0.6,1,1,1.4
		c0.5,0.4,1.1,0.6,1.8,0.6h6.4l-24.6-61.6H1003.3z M996.1,104.7l9.7-25c0.3-0.7,0.6-1.6,0.9-2.6s0.6-2.1,0.9-3.3
		c0.6,2.3,1.2,4.3,1.8,5.8l9.7,25.1H996.1z"/>
	<rect x="1045.8" y="65.9" class="st0" width="8.3" height="61.6"/>
	<path class="st0" d="M1113.3,65.9v43.6c0,0.7,0,1.3,0,2s0.1,1.4,0.2,2.2l-35.7-46.4c-0.5-0.6-0.9-0.9-1.2-1.1
		c-0.3-0.2-0.9-0.3-1.7-0.3h-4.3v61.6h7.3V83.7c0-0.6,0-1.2,0-1.9s-0.1-1.4-0.1-2.1l35.7,46.4c0.4,0.5,0.9,0.9,1.3,1.2
		c0.5,0.2,1,0.3,1.7,0.3h4.2V65.9H1113.3L1113.3,65.9z"/>
</g>
<g>
	<path class="st0" d="M307.5,120c0.1,0.8,0.1,1.6,0.2,2.5c1.1,9-2.6,15.3-11,18.7c-5.7,2.3-11.7,2.9-17.8,3.1
		c-13.3,0.3-26.5-1.6-39.5-4.3c-29.3-6.2-58.5-12.2-87.8-18.3c-20.5-4.2-41.1-8.4-61-15.1C67.8,99,45.2,91,22.2,84.1
		c-1-0.3-1.9-1-3-0.4c21.7,10.5,43.5,20.4,65.6,29.9c43.8,18.8,88.9,34.2,135.1,45.9c21.3,5.4,42.7,7.3,64.5,2.7
		c11.8-2.5,21.1-7.7,25-19.9C311.8,134.6,311.9,127.2,307.5,120z"/>
	<path class="st0" d="M191.7,192.4c-35.5-18.4-71-36.7-106.6-55.1C58,123.3,31,109.4,3.9,95.4c-1.1-0.9-2.3-1.6-3.9-1.6
		c1.1,0.7,2.3,1.4,3.4,2c45.8,29,91.6,58.1,138,87.4c-20.7,2.9-40.6,5.7-60.5,8.5c0,0.1,0,0.3,0,0.4c37.2,0.4,74.4,0.8,111.6,1.1
		C192.3,192.7,192,192.5,191.7,192.4z"/>
	<path class="st0" d="M286.4,163.9c-8.7,3.1-17.6,4.5-26.8,4.8c-17.2,0.6-34-1.9-50.7-5.8c-15.4-3.5-30.3-8.4-45.1-13.8
		c-1.3-0.7-2.7-1.4-4.3-1.1c1.2,0.5,2.5,1.1,3.7,1.6c16.7,8.2,33.6,16.1,50.9,23c10.3,4.1,20.8,7.2,32,7.7
		c11.9,0.6,23.3-1.1,33.4-8.1c3.2-2.2,6.1-4.8,7.9-8.3C287,163.6,286.7,163.8,286.4,163.9z"/>
	<path class="st0" d="M27.4,59.1c0.7,4.1,1,8.4,0.7,12.6c-6.8,0.3-13.6,0.5-20.4,0.8c1.3,3.8,5.6,5.4,9.5,6.6
		c77.9,24.2,157.1,45.2,237.8,57.2c-54.9-28.2-111.4-56.8-172.8-62.8c-1-0.1-2.2-0.2-2.8-1c-0.5-0.6-0.6-1.5-0.7-2.3
		c-0.5-7.1-0.4-14.3,0.3-21.4c0.2-1.6,0.4-3.2,1-4.7c2.6-5.8,10.3-6.8,16.7-6.9c-1.5,8.3-1.8,16.8-1,25.2c0.1,0.9,0.2,1.8,0.8,2.5
		c0.7,0.8,2,1,3.1,1.1c50.9,4.3,96.8,30.7,140.7,56.8c-15.5-24-33.6-46.2-54-66.2c19.3,16,38.5,32,57.8,48
		c10.1,8.4,21.4,17.2,34.6,16.8c3.7-0.1,7.5-1.1,10.3-3.6c6.5-6,3.2-15.8,1.5-23.2L284.2,74c-0.2-1-0.6-1.8-1.1-2.6
		c0.5,0.7,0.8,1.6,1.6,2c7.2,11.4,13,23.7,19.1,35.7c-12.5-32.4-30.2-64.2-58.2-84.7C218.3,4.5,183.1-2.8,149.6,1
		c-12.9,1.5-25.8,4.5-38.8,4.1c-5.8-0.2-11.6-1-17.3,0.3c-5.4,1.2-10.1,4.3-14.7,7.3c-21.4,14-42.8,28-64.1,42
		c15-7.3,30.1-14.7,45.1-22.1c8.8-2.3,17.4-5.4,25.6-9.2c1.6-0.8,3.4-1.6,4.4-3.1c0.8-1.2,1.2-2.7,2.1-3.9c1.2-1.6,3.3-2.3,5.3-2.9
		c15.1-4.5,30.6-7.3,46.3-8.3c0.5,0,1.1-0.1,1.6,0.2c-11.9,1.9-23.6,5.1-34.8,9.5c17.8-0.9,35.8,6.7,47.4,20.2
		c-16.3-8-33.7-16.2-51.7-14.4c-9.7,1-18.8,4.8-27.8,8.7c-22.4,9.7-44.6,19.8-66.4,30.8c-2.3,1.3-5,3.3-4.2,5.7
		C14.2,63.6,20.8,61.4,27.4,59.1z M271.8,62.5c14,41.3,11.5,48.8,1.6,49.1c-10,0.3-49.9-40.1-49.9-40.1S267.6,87.2,271.8,62.5z
		 M156,27.3c-3.9-6.5-2.6-12.6,3.8-16.8c5.2-3.5,11.1-5.1,17.4-5c13.1,0.1,25.6,2.9,37.8,7.4c17.1,6.4,31.8,16.5,44.7,29.4
		c1.5,1.5,2.8,3.1,4,4.7c1.9,2.6,1.9,4-0.1,6.7c-1.9,2.5-4.6,3.7-7.6,4.4c-3.7,1-7.5,1.2-11.4,1.1c-23.7-1.2-46.9-4.8-68.5-15.5
		c-5.9-2.9-11.4-6.4-16.1-11.1C158.6,30.9,157.1,29.2,156,27.3z M62.5,48.2c0.1-0.7,0-1.5,1-1.8c4.2-1.3,8.4-2.7,12.9-4.2
		c-0.3,10.2,0.4,20,1.3,29.8c0.1,1.3,0,1.9-1.6,1.7c-4.1-0.4-8.3-0.6-12.4-0.8c-1.4-0.1-2-0.3-2.1-1.9
		C61.3,63.4,61.7,55.8,62.5,48.2z M47.7,52.9c0.1-0.9,0.5-1.3,1.3-1.5c2.9-1,5.8-1.9,8.7-3c1.6-0.6,1.6,0.2,1.6,1.4
		c0,3.5,0,7,0,10.4c0.1,0,0.2,0,0.3,0c0.2,3.6,0.4,7.3,0.8,10.9c0.1,1.4-0.3,1.7-1.6,1.6c-3.4-0.2-6.8-0.3-10.2-0.4
		c-1.3,0-1.9-0.3-1.9-1.8C46.6,64.6,47,58.7,47.7,52.9z M36.8,64.9c0-1,0.1-2,0.1-3c0.4-7.3,0.7-7.6,8.2-9.1
		c-0.3,6-0.1,11.9,0.4,17.8c0.1,1.1-0.2,1.6-1.3,1.4c-0.1,0-0.2,0-0.2,0C36.7,72.3,36.7,72.3,36.8,64.9z M29.2,59.1
		c0.1-0.7,0.4-1,1-1.2c1.8-0.6,3.5-1.2,5.6-2c0,5.2-0.2,10,0.4,14.8c0,0.3,0.1,0.9,0,0.9c-1.9,0.7-3.9,0.1-5.8,0.3
		c-1.3,0.1-1.3-1-1.3-1.7C28.6,66.5,28.8,62.8,29.2,59.1z"/>
</g>
</svg>
