<?xml version="1.0" encoding="utf-8"?>
<!-- Generator: Adobe Illustrator 23.0.0, SVG Export Plug-In . SVG Version: 6.00 Build 0)  -->
<svg version="1.1" id="Layer_1" xmlns="http://www.w3.org/2000/svg" xmlns:xlink="http://www.w3.org/1999/xlink" x="0px" y="0px"
	 viewBox="0 0 277.8 172.5" style="enable-background:new 0 0 277.8 172.5;" xml:space="preserve">
<style type="text/css">
	.st0{fill:#E2E0DF;}
</style>
<g>
	<path class="st0" d="M41.3,57.6c0.5,3.2,0.7,6.4,0.5,9.6c-5.2,0.2-10.4,0.4-15.6,0.6c1,2.9,4.3,4.1,7.2,5
		c59.4,18.5,119.7,34.4,181.2,43.6C172.9,94.9,129.8,73.1,83,68.5c-0.8-0.1-1.7-0.2-2.2-0.8c-0.4-0.5-0.5-1.1-0.5-1.7
		c-0.4-5.4-0.3-10.9,0.3-16.3c0.1-1.2,0.3-2.4,0.8-3.6c1.9-4.4,7.8-5.2,12.7-5.3c-1.1,6.3-1.4,12.8-0.8,19.2
		c0.1,0.7,0.2,1.4,0.6,1.9c0.6,0.6,1.5,0.7,2.3,0.8c38.8,3.3,73.8,23.4,107.2,43.3c-11.8-18.3-25.6-35.2-41.1-50.4
		c14.7,12.2,29.4,24.4,44,36.6c7.7,6.4,16.3,13.1,26.3,12.8c2.8-0.1,5.7-0.8,7.8-2.7c5-4.6,2.4-12.1,1.1-17.7L236.9,69
		c-0.1-0.7-0.5-1.3-0.9-2c0.4,0.5,0.6,1.2,1.2,1.5c5.5,8.7,9.9,18.1,14.6,27.2c-9.5-24.7-23-48.9-44.4-64.5
		c-20.8-15.1-47.7-20.8-73.2-17.9c-9.9,1.1-19.6,3.4-29.6,3.2c-4.4-0.1-8.9-0.8-13.2,0.2c-4.1,0.9-7.7,3.3-11.2,5.6
		C64.1,33,47.8,43.7,31.5,54.4c11.5-5.6,22.9-11.2,34.4-16.8c6.7-1.8,13.2-4.1,19.5-7c1.3-0.6,2.6-1.2,3.4-2.4
		c0.6-0.9,0.9-2.1,1.6-3c0.9-1.3,2.5-1.8,4-2.2c11.5-3.4,23.3-5.6,35.3-6.4c0.4,0,0.8-0.1,1.2,0.1c-9.1,1.5-18,3.9-26.5,7.2
		c13.5-0.7,27.3,5.1,36.1,15.4C128,33.2,114.8,27,101,28.4c-7.4,0.8-14.4,3.7-21.2,6.7c-17.1,7.4-34,15.1-50.6,23.5
		c-1.7,0.9-3.7,2.4-3.1,4.2C31.2,61,36.3,59.3,41.3,57.6z M216.1,80.2c-4.7,0-8.6-3.8-8.6-8.6c0-4.7,3.8-8.6,8.6-8.6
		s8.6,3.8,8.6,8.6S220.9,80.2,216.1,80.2z M139.3,33.3c-2.9-5-1.9-9.6,2.9-12.8c4-2.7,8.5-3.9,13.3-3.8c10,0,19.5,2.2,28.8,5.6
		c13.1,4.8,24.2,12.6,34.1,22.4c1.1,1.1,2.1,2.4,3.1,3.6c1.5,1.9,1.4,3.1,0,5.1c-1.4,1.9-3.5,2.8-5.8,3.4c-2.8,0.7-5.7,0.9-8.7,0.8
		c-18.1-0.9-35.8-3.7-52.2-11.8c-4.5-2.2-8.7-4.9-12.2-8.5C141.2,36.1,140.1,34.8,139.3,33.3z M68,49.2c0.1-0.5,0-1.1,0.7-1.3
		c3.2-1,6.4-2.1,9.8-3.2c-0.3,7.7,0.3,15.2,1,22.7c0.1,1,0,1.4-1.3,1.3c-3.1-0.3-6.3-0.5-9.5-0.6c-1.1,0-1.6-0.3-1.6-1.5
		C67.1,60.8,67.4,55,68,49.2z M56.7,52.8c0.1-0.7,0.4-1,1-1.2c2.2-0.7,4.4-1.5,6.6-2.3c1.2-0.4,1.2,0.1,1.2,1c0,2.7,0,5.3,0,8
		c0.1,0,0.1,0,0.2,0c0.2,2.8,0.3,5.6,0.6,8.3c0.1,1-0.2,1.3-1.2,1.2c-2.6-0.2-5.2-0.3-7.8-0.3c-1,0-1.5-0.2-1.4-1.3
		C55.9,61.7,56.2,57.3,56.7,52.8z M48.5,62c0-0.8,0-1.5,0.1-2.3c0.3-5.6,0.5-5.8,6.3-6.9c-0.2,4.5-0.1,9.1,0.3,13.6
		c0.1,0.8-0.1,1.2-1,1.1c-0.1,0-0.1,0-0.2,0C48.3,67.6,48.3,67.6,48.5,62z M42.6,57.6c0.1-0.5,0.3-0.8,0.8-0.9
		c1.4-0.5,2.7-0.9,4.2-1.5c0,4-0.2,7.6,0.3,11.2c0,0.2,0.1,0.7,0,0.7c-1.5,0.5-3,0.1-4.5,0.2c-1,0.1-1-0.7-1-1.3
		C42.2,63.2,42.3,60.4,42.6,57.6z"/>
	<path class="st0" d="M254.7,104c0.1,0.6,0.1,1.3,0.2,1.9c0.8,6.9-2,11.7-8.4,14.3c-4.3,1.8-8.9,2.2-13.6,2.3
		c-10.2,0.2-20.2-1.2-30.1-3.3c-22.3-4.7-44.6-9.3-66.9-13.9c-15.6-3.2-31.3-6.4-46.5-11.5c-17.4-5.8-34.6-11.9-52.2-17.1
		c-0.7-0.2-1.4-0.7-2.3-0.3c16.5,8,33.2,15.5,50,22.8c33.4,14.4,67.7,26,103,35c16.3,4.1,32.6,5.6,49.1,2.1
		c9-1.9,16.1-5.8,19.1-15.2C258,115.1,258.1,109.4,254.7,104z"/>
	<path class="st0" d="M166.5,159.1c-27.1-14-54.1-28-81.2-42C64.7,106.5,44,95.8,23.4,85.2c-0.9-0.7-1.8-1.2-3-1.2
		c0.9,0.5,1.7,1,2.6,1.5l0,0c34.9,22.1,69.8,44.2,105.1,66.6c-15.8,2.2-31,4.3-46.1,6.4c0,0.1,0,0.2,0,0.3c28.3,0.3,56.7,0.6,85,0.9
		C166.9,159.4,166.7,159.2,166.5,159.1z"/>
	<path class="st0" d="M238.7,137.4c-6.6,2.3-13.4,3.4-20.4,3.7c-13.1,0.5-25.9-1.5-38.7-4.4c-11.7-2.7-23.1-6.4-34.4-10.5
		c-1-0.5-2-1.1-3.3-0.9c0.9,0.4,1.9,0.8,2.9,1.2c12.7,6.3,25.6,12.3,38.8,17.5c7.9,3.1,15.9,5.5,24.4,5.9c9.1,0.4,17.8-0.8,25.5-6.2
		c2.4-1.7,4.6-3.7,6-6.3C239.1,137.2,238.9,137.3,238.7,137.4z"/>
</g>
</svg>
