<?xml version="1.0" encoding="utf-8"?>
<!-- Generator: Adobe Illustrator 23.0.0, SVG Export Plug-In . SVG Version: 6.00 Build 0)  -->
<svg version="1.1" id="Layer_1" xmlns="http://www.w3.org/2000/svg" xmlns:xlink="http://www.w3.org/1999/xlink" x="0px" y="0px"
	 viewBox="0 0 512 512" style="enable-background:new 0 0 512 512;" xml:space="preserve">
<style type="text/css">
	.st0{fill:#E2E0DF;}
</style>
<g>
	<path class="st0" d="M60.74,198.64c1.09,6.32,1.45,12.76,1.07,19.16c-10.37,0.39-20.73,0.77-31.1,1.16
		c2.04,5.73,8.6,8.24,14.41,10.05c118.75,36.94,239.37,68.89,362.38,87.17c-83.61-42.87-169.75-86.51-263.26-95.65
		c-1.57-0.15-3.32-0.38-4.33-1.6c-0.78-0.94-0.92-2.25-1.01-3.47c-0.8-10.85-0.62-21.77,0.53-32.59c0.26-2.43,0.58-4.89,1.56-7.13
		c3.9-8.9,15.69-10.36,25.4-10.52c-2.25,12.68-2.77,25.66-1.55,38.48c0.13,1.34,0.31,2.77,1.21,3.78c1.12,1.26,2.98,1.47,4.66,1.61
		c77.51,6.53,147.57,46.82,214.41,86.61c-23.61-36.51-51.25-70.41-82.25-100.89c29.36,24.41,58.73,48.82,88.09,73.23
		c15.38,12.78,32.69,26.27,52.68,25.67c5.64-0.17,11.49-1.64,15.64-5.47c9.95-9.2,4.9-24.12,2.3-35.37l-9.62-31.37
		c-0.23-1.45-0.94-2.69-1.7-3.92c0.74,1.08,1.17,2.41,2.43,3.08c11,17.43,19.82,36.11,29.16,54.45
		c-18.99-49.42-45.99-97.85-88.78-129.03c-41.54-30.27-95.31-41.53-146.38-35.71c-19.72,2.25-39.29,6.9-59.12,6.3
		c-8.8-0.27-17.74-1.56-26.32,0.4c-8.17,1.87-15.38,6.55-22.39,11.14c-32.58,21.35-65.16,42.69-97.73,64.04
		c22.91-11.2,45.81-22.41,68.72-33.61c13.4-3.55,26.48-8.26,39.06-14.08c2.51-1.16,5.12-2.46,6.72-4.73
		c1.29-1.83,1.8-4.14,3.15-5.93c1.89-2.5,5.07-3.57,8.07-4.47c22.94-6.87,46.67-11.13,70.56-12.71c0.82,0.04,1.69-0.14,2.43,0.26
		c-18.13,2.95-35.96,7.81-53.08,14.47c27.06-1.39,54.5,10.27,72.28,30.72c-24.82-12.2-51.31-24.73-78.82-21.92
		c-14.78,1.51-28.72,7.39-42.34,13.3c-34.11,14.8-67.94,30.25-101.14,46.98c-3.41,1.72-7.43,4.79-6.23,8.42
		C40.57,205.5,50.66,202.07,60.74,198.64z M410.4,243.97c-9.49,0-17.18-7.69-17.18-17.18c0-9.49,7.69-17.18,17.18-17.18
		c9.49,0,17.18,7.69,17.18,17.18C427.58,236.28,419.89,243.97,410.4,243.97z M256.69,150.12c-5.88-9.98-3.89-19.19,5.75-25.6
		c8-5.32,16.94-7.73,26.52-7.68c19.93,0.1,39.08,4.38,57.67,11.26c26.13,9.68,48.47,25.21,68.12,44.78c2.23,2.22,4.2,4.72,6.1,7.23
		c2.94,3.89,2.88,6.17-0.09,10.14c-2.88,3.85-7.05,5.62-11.51,6.78c-5.67,1.47-11.47,1.77-17.32,1.69
		c-36.18-1.83-71.53-7.39-104.45-23.64c-8.99-4.43-17.36-9.81-24.47-16.97C260.6,155.7,258.43,153.08,256.69,150.12z M114.2,181.97
		c0.12-1.08-0.02-2.23,1.47-2.7c6.45-2.05,12.87-4.18,19.6-6.38c-0.5,15.48,0.66,30.45,2,45.41c0.18,2.03-0.05,2.87-2.5,2.64
		c-6.28-0.6-12.6-0.92-18.91-1.19c-2.11-0.09-3.1-0.53-3.17-2.96C112.39,205.14,112.95,193.54,114.2,181.97z M91.61,189.12
		c0.15-1.37,0.79-1.97,1.97-2.36c4.43-1.48,8.88-2.91,13.25-4.55c2.38-0.89,2.44,0.23,2.42,2.06c-0.07,5.3-0.03,10.61-0.03,15.91
		c0.13,0,0.26,0,0.39,0.01c0.38,5.55,0.68,11.1,1.17,16.64c0.18,2.06-0.43,2.55-2.45,2.42c-5.17-0.34-10.35-0.51-15.53-0.58
		c-1.97-0.03-2.9-0.43-2.89-2.7C89.94,206.98,90.62,198.05,91.61,189.12z M75.07,207.52c0.03-1.51,0.08-3.02,0.16-4.53
		c0.62-11.11,1.05-11.58,12.56-13.82c-0.48,9.08-0.2,18.11,0.63,27.12c0.15,1.65-0.26,2.38-1.96,2.15
		c-0.12-0.02-0.25-0.01-0.38-0.01C74.82,218.81,74.82,218.81,75.07,207.52z M63.41,198.66c0.12-1.02,0.59-1.52,1.55-1.84
		c2.72-0.91,5.41-1.9,8.48-3c0.07,7.91-0.3,15.22,0.57,22.49c0.06,0.49,0.17,1.38,0.01,1.44c-2.91,1.08-5.94,0.22-8.91,0.43
		c-1.92,0.14-1.91-1.49-2.02-2.57C62.54,209.95,62.77,204.3,63.41,198.66z"/>
	<path class="st0" d="M487.58,291.47c0.12,1.25,0.21,2.51,0.36,3.75c1.63,13.72-3.93,23.32-16.71,28.52
		c-8.68,3.53-17.85,4.47-27.11,4.65c-20.34,0.4-40.38-2.37-60.17-6.58c-44.59-9.48-89.23-18.66-133.88-27.86
		c-31.29-6.44-62.65-12.83-92.99-22.97c-34.71-11.61-69.22-23.81-104.32-34.23c-1.45-0.43-2.89-1.48-4.61-0.64
		c33,15.96,66.3,31.05,99.91,45.5c66.81,28.73,135.43,52.09,205.94,69.95c32.52,8.24,65.1,11.18,98.29,4.18
		c18-3.8,32.19-11.66,38.1-30.34C494.08,313.75,494.35,302.4,487.58,291.47z"/>
	<path class="st0" d="M311.17,401.78c-54.13-27.99-108.26-56-162.41-83.98C107.52,296.49,66.25,275.2,25,253.9
		c-1.72-1.34-3.58-2.39-5.96-2.41c1.73,1.03,3.46,2.06,5.2,3.09v0c69.82,44.24,139.64,88.48,210.27,133.23
		c-31.57,4.41-61.92,8.65-92.26,12.89c0.01,0.22,0.02,0.44,0.03,0.66c56.7,0.58,113.39,1.17,170.09,1.75
		C312.02,402.23,311.6,402,311.17,401.78z"/>
	<path class="st0" d="M455.48,358.35c-13.22,4.67-26.89,6.8-40.85,7.32c-26.23,0.98-51.89-2.97-77.33-8.85
		c-23.4-5.41-46.17-12.87-68.74-20.99c-2.05-1.06-4.08-2.15-6.55-1.7c1.9,0.83,3.8,1.65,5.71,2.48
		c25.47,12.56,51.2,24.54,77.62,34.99c15.7,6.21,31.73,10.96,48.73,11.76c18.19,0.86,35.56-1.68,50.95-12.31
		c4.88-3.37,9.24-7.32,12.06-12.68C456.39,357.89,455.96,358.18,455.48,358.35z"/>
</g>
</svg>
