<?xml version="1.0" encoding="utf-8"?>
<!-- Generator: Adobe Illustrator 23.0.0, SVG Export Plug-In . SVG Version: 6.00 Build 0)  -->
<svg version="1.1" id="Layer_1" xmlns="http://www.w3.org/2000/svg" xmlns:xlink="http://www.w3.org/1999/xlink" x="0px" y="0px"
	 viewBox="0 0 1047 207.5" style="enable-background:new 0 0 1047 207.5;" xml:space="preserve">
<g>
	<path d="M324.7,123.5c0.1,0.8,0.1,1.6,0.2,2.5c1.1,9-2.6,15.3-11,18.7c-5.7,2.3-11.7,2.9-17.8,3.1c-13.3,0.3-26.5-1.6-39.5-4.3
		c-29.3-6.2-58.5-12.2-87.8-18.3c-20.5-4.2-41.1-8.4-61-15.1C85,102.5,62.4,94.5,39.4,87.6c-1-0.3-1.9-1-3-0.4
		c21.7,10.5,43.5,20.4,65.6,29.9c43.8,18.8,88.9,34.2,135.1,45.9c21.3,5.4,42.7,7.3,64.5,2.7c11.8-2.5,21.1-7.7,25-19.9
		C329,138.1,329.1,130.7,324.7,123.5z"/>
	<path d="M208.9,195.9c-35.5-18.4-71-36.7-106.6-55.1c-27.1-14-54.1-27.9-81.2-41.9c-1.1-0.9-2.3-1.6-3.9-1.6c1.1,0.7,2.3,1.4,3.4,2
		c45.8,29,91.6,58.1,138,87.4c-20.7,2.9-40.6,5.7-60.5,8.5c0,0.1,0,0.3,0,0.4c37.2,0.4,74.4,0.8,111.6,1.1
		C209.5,196.2,209.2,196,208.9,195.9z"/>
	<path d="M303.6,167.4c-8.7,3.1-17.6,4.5-26.8,4.8c-17.2,0.6-34-1.9-50.7-5.8c-15.4-3.5-30.3-8.4-45.1-13.8
		c-1.3-0.7-2.7-1.4-4.3-1.1c1.2,0.5,2.5,1.1,3.7,1.6c16.7,8.2,33.6,16.1,50.9,23c10.3,4.1,20.8,7.2,32,7.7
		c11.9,0.6,23.3-1.1,33.4-8.1c3.2-2.2,6.1-4.8,7.9-8.3C304.2,167.1,303.9,167.3,303.6,167.4z"/>
	<path d="M44.6,62.6c0.7,4.1,1,8.4,0.7,12.6c-6.8,0.3-13.6,0.5-20.4,0.8c1.3,3.8,5.6,5.4,9.5,6.6c77.9,24.2,157.1,45.2,237.8,57.2
		C217.3,111.6,160.8,83,99.4,77c-1-0.1-2.2-0.2-2.8-1c-0.5-0.6-0.6-1.5-0.7-2.3c-0.5-7.1-0.4-14.3,0.3-21.4c0.2-1.6,0.4-3.2,1-4.7
		c2.6-5.8,10.3-6.8,16.7-6.9c-1.5,8.3-1.8,16.8-1,25.2c0.1,0.9,0.2,1.8,0.8,2.5c0.7,0.8,2,1,3.1,1.1c50.9,4.3,96.8,30.7,140.7,56.8
		c-15.5-24-33.6-46.2-54-66.2c19.3,16,38.5,32,57.8,48c10.1,8.4,21.4,17.2,34.6,16.8c3.7-0.1,7.5-1.1,10.3-3.6
		c6.5-6,3.2-15.8,1.5-23.2l-6.3-20.6c-0.2-1-0.6-1.8-1.1-2.6c0.5,0.7,0.8,1.6,1.6,2c7.2,11.4,13,23.7,19.1,35.7
		c-12.5-32.4-30.2-64.2-58.2-84.7C235.5,8,200.3,0.7,166.8,4.5C153.9,6,141,9,128,8.6c-5.8-0.2-11.6-1-17.3,0.3
		c-5.4,1.2-10.1,4.3-14.7,7.3c-21.4,14-42.8,28-64.1,42C46.9,50.9,62,43.5,77,36.1c8.8-2.3,17.4-5.4,25.6-9.2
		c1.6-0.8,3.4-1.6,4.4-3.1c0.8-1.2,1.2-2.7,2.1-3.9c1.2-1.6,3.3-2.3,5.3-2.9c15.1-4.5,30.6-7.3,46.3-8.3c0.5,0,1.1-0.1,1.6,0.2
		c-11.9,1.9-23.6,5.1-34.8,9.5c17.8-0.9,35.8,6.7,47.4,20.2c-16.3-8-33.7-16.2-51.7-14.4c-9.7,1-18.8,4.8-27.8,8.7
		C73,42.6,50.8,52.7,29,63.7c-2.3,1.3-5,3.3-4.2,5.7C31.4,67.1,38,64.9,44.6,62.6z M289,66c14,41.3,11.5,48.8,1.6,49.1
		c-10,0.3-49.9-40.1-49.9-40.1S284.8,90.7,289,66z M173.2,30.8c-3.9-6.5-2.6-12.6,3.8-16.8c5.2-3.5,11.1-5.1,17.4-5
		c13.1,0.1,25.6,2.9,37.8,7.4c17.1,6.4,31.8,16.5,44.7,29.4c1.5,1.5,2.8,3.1,4,4.7c1.9,2.6,1.9,4-0.1,6.7c-1.9,2.5-4.6,3.7-7.6,4.4
		c-3.7,1-7.5,1.2-11.4,1.1c-23.7-1.2-46.9-4.8-68.5-15.5c-5.9-2.9-11.4-6.4-16.1-11.1C175.8,34.4,174.3,32.7,173.2,30.8z M79.7,51.7
		c0.1-0.7,0-1.5,1-1.8c4.2-1.3,8.4-2.7,12.9-4.2c-0.3,10.2,0.4,20,1.3,29.8c0.1,1.3,0,1.9-1.6,1.7c-4.1-0.4-8.3-0.6-12.4-0.8
		c-1.4-0.1-2-0.3-2.1-1.9C78.5,66.9,78.9,59.3,79.7,51.7z M64.9,56.4c0.1-0.9,0.5-1.3,1.3-1.5c2.9-1,5.8-1.9,8.7-3
		c1.6-0.6,1.6,0.2,1.6,1.4c0,3.5,0,7,0,10.4c0.1,0,0.2,0,0.3,0c0.2,3.6,0.4,7.3,0.8,10.9c0.1,1.4-0.3,1.7-1.6,1.6
		c-3.4-0.2-6.8-0.3-10.2-0.4c-1.3,0-1.9-0.3-1.9-1.8C63.8,68.1,64.2,62.2,64.9,56.4z M54,68.4c0-1,0.1-2,0.1-3
		c0.4-7.3,0.7-7.6,8.2-9.1c-0.3,6-0.1,11.9,0.4,17.8c0.1,1.1-0.2,1.6-1.3,1.4c-0.1,0-0.2,0-0.2,0C53.9,75.8,53.9,75.8,54,68.4z
		 M46.4,62.6c0.1-0.7,0.4-1,1-1.2c1.8-0.6,3.5-1.2,5.6-2c0,5.2-0.2,10,0.4,14.8c0,0.3,0.1,0.9,0,0.9c-1.9,0.7-3.9,0.1-5.8,0.3
		c-1.3,0.1-1.3-1-1.3-1.7C45.8,70,46,66.3,46.4,62.6z"/>
</g>
</svg>
