<?xml version="1.0" encoding="utf-8"?>
<!-- Generator: Adobe Illustrator 23.0.0, SVG Export Plug-In . SVG Version: 6.00 Build 0)  -->
<svg version="1.1" id="Layer_1" xmlns="http://www.w3.org/2000/svg" xmlns:xlink="http://www.w3.org/1999/xlink" x="0px" y="0px"
	 viewBox="0 0 1047 207.5" style="enable-background:new 0 0 1047 207.5;" xml:space="preserve">
<style type="text/css">
	.st0{fill:#E2E0DF;}
</style>
<g>
	<g>
		<path class="st0" d="M460,123.8c0.1,0.7,0.1,1.4,0.2,2.2c0.9,7.7-2.2,13.1-9.4,16c-4.9,2-10,2.5-15.2,2.7
			c-11.4,0.3-22.7-1.4-33.8-3.7c-25.1-5.3-50-10.4-75.1-15.6c-17.5-3.6-35.1-7.2-52.2-12.9c-19.4-6.6-38.8-13.5-58.4-19.4
			c-0.9-0.3-1.6-0.9-2.6-0.3c18.6,9,37.2,17.4,56.1,25.6c37.4,16.1,76,29.2,115.5,39.2c18.2,4.6,36.5,6.2,55.1,2.3
			c10.1-2.1,18-6.6,21.4-17C463.7,136.3,463.7,130,460,123.8z"/>
		<path class="st0" d="M269.9,138.6c-23.2-12-4.3-23.9-27.4-35.8c-0.9-0.8-2-1.4-3.3-1.4c0.9,0.6,2,1.2,2.9,1.7
			c39.2,24.8,36.3,49.7,76,74.7c-17.7,2.5-34.7,4.9-51.7,7.3c0,0.1,0,0.3,0,0.3c31.8,0.3,63.6,0.7,95.4,0.9
			c-0.3-0.3-0.5-0.5-0.8-0.6C330.6,170,300.3,154.3,269.9,138.6z"/>
		<path class="st0" d="M442,161.4c-7.4,2.7-15,3.8-22.9,4.1c-14.7,0.5-29.1-1.6-43.3-5c-13.2-3-25.9-7.2-38.6-11.8
			c-1.1-0.6-2.3-1.2-3.7-0.9c1,0.4,2.1,0.9,3.2,1.4c14.3,7,28.7,13.8,43.5,19.7c8.8,3.5,17.8,6.2,27.4,6.6
			c10.2,0.5,19.9-0.9,28.6-6.9c2.7-1.9,5.2-4.1,6.8-7.1C442.5,161.1,442.2,161.3,442,161.4z"/>
		<path class="st0" d="M220.5,71.8c0.6,3.5,0.9,7.2,0.6,10.8c-5.8,0.3,30.4,0.4,24.6,0.7c1.1,3.2-37.2,4.6-33.9,5.6
			c66.6,20.7,134.3,38.6,203.3,48.9c-46.9-24.1-95.2-48.6-147.7-53.7c-0.9-0.1-1.9-0.2-2.4-0.9c-0.4-0.5-0.5-1.3-0.6-2
			c-0.4-6.1-0.3-12.2,0.3-18.3c0.2-1.4,0.3-2.7,0.9-4c2.2-5,8.8-5.8,14.3-5.9c-1.3,7.1-1.5,14.4-0.9,21.5c0.1,0.8,0.2,1.5,0.7,2.1
			c0.6,0.7,1.7,0.9,2.7,0.9c43.5,3.7,82.8,26.2,120.3,48.6c-13.3-20.5-28.7-39.5-46.2-56.6c16.5,13.7,32.9,27.4,49.4,41
			c8.6,7.2,18.3,14.7,29.6,14.4c3.2-0.1,6.4-0.9,8.8-3.1c5.6-5.1,2.7-13.5,1.3-19.8l-5.5-17.5c-0.2-0.9-0.5-1.5-0.9-2.2
			c0.4,0.6,0.7,1.4,1.4,1.7c6.2,9.7,11.1,20.3,16.3,30.5c-10.7-27.7-25.8-54.9-49.8-72.4c-23.3-17-53.4-23.3-82.1-20
			c-11,1.3-22.1,3.8-33.2,3.5c-5-0.2-9.9-0.9-14.8,0.3c-4.6,1-8.6,3.7-12.6,6.2c-18.3,12-36.6,23.9-54.8,35.9
			c12.8-6.2,25.7-12.6,38.6-18.9c7.5-2,14.9-4.6,21.9-7.9c1.4-0.7,2.9-1.4,3.8-2.7c0.7-1,1-2.3,1.8-3.3c1-1.4,2.8-2,4.5-2.5
			c12.9-3.8,26.2-6.2,39.6-7.1c0.4,0,0.9-0.1,1.4,0.2c-10.2,1.6-20.2,4.4-29.8,8.1c15.2-0.8,30.6,5.7,40.5,17.3
			c-13.9-6.8-28.8-13.9-44.2-12.3c-8.3,0.9-16.1,4.1-23.8,7.4c-19.2,8.3,3.9,16.9-14.8,26.3c-2,1.1-4.3,2.8-3.6,4.9
			C251.2,75.6,214.9,73.7,220.5,71.8z M429.5,74.7c12,35.3,9.8,41.7,1.4,42c-8.5,0.3-42.7-34.3-42.7-34.3S425.9,95.8,429.5,74.7z
			 M330.5,44.6c-3.3-5.6-2.2-10.8,3.2-14.4c4.4-3,9.5-4.4,14.9-4.3c11.2,0.1,21.9,2.5,32.3,6.3c14.6,5.5,27.2,14.1,38.2,25.1
			c1.3,1.3,2.4,2.7,3.4,4c1.6,2.2,1.6,3.4-0.1,5.7c-1.6,2.1-3.9,3.2-6.5,3.8c-3.2,0.9-6.4,1-9.7,0.9c-20.3-1-40.1-4.1-58.6-13.3
			c-5-2.5-9.7-5.5-13.8-9.5C332.7,47.7,331.4,46.2,330.5,44.6z M250.5,62.4c0.1-0.6,0-1.3,0.9-1.5c3.6-1.1,7.2-2.3,11-3.6
			c-0.3,8.7,0.3,17.1,1.1,25.5c0.1,1.1,0,1.6-1.4,1.5c-3.5-0.3-7.1-0.5-10.6-0.7c-1.2-0.1-1.7-0.3-1.8-1.6
			C249.5,75.4,249.9,68.9,250.5,62.4z M237.9,66.5c0.1-0.8,0.4-1.1,1.1-1.3c2.5-0.9,5-1.6,7.4-2.6c1.4-0.5,1.4,0.2,1.4,1.2
			c0,3,0,6,0,8.9c0.1,0,0.2,0,0.3,0c0.2,3.1,0.3,6.2,0.7,9.3c0.1,1.2-0.3,1.5-1.4,1.4c-2.9-0.2-5.8-0.3-8.7-0.3
			c-1.1,0-1.6-0.3-1.6-1.5C236.9,76.5,237.3,71.4,237.9,66.5z M228.6,76.7c0-0.9,0.1-1.7,0.1-2.6c0.3-6.2,0.6-6.5,7-7.8
			c-0.3,5.1-0.1,10.2,0.3,15.2c0.1,0.9-0.2,1.4-1.1,1.2c-0.1,0-0.2,0-0.2,0C228.5,83.1,228.5,83.1,228.6,76.7z M222.1,71.8
			c0.1-0.6,0.3-0.9,0.9-1c1.5-0.5,3-1,4.8-1.7c0,4.4-0.2,8.5,0.3,12.7c0,0.3,0.1,0.8,0,0.8c-1.6,0.6-3.3,0.1-5,0.3
			C222,83,222,82,222,81.4C221.6,78.1,221.7,74.9,222.1,71.8z"/>
	</g>
	<g>
		<g>
			<path class="st0" d="M22.1,37c1.4-0.4,2.6-1,3.7-1.7c1-0.7,1.9-1.5,2.6-2.3c0.7-0.9,1.2-1.8,1.6-2.9c0.4-1,0.5-2.1,0.5-3.2
				c0-1.8-0.3-3.4-1-4.9c-0.6-1.5-1.5-2.7-2.9-3.7c-1.3-1-2.9-1.8-5-2.3c-2.1-0.5-4.4-0.8-7.2-0.8H0v45.1h16
				c2.7-0.2,4.9-0.5,6.9-1.1s3.6-1.5,5-2.6c1.3-1.1,2.4-2.5,3.1-4c0.7-1.6,1-3.3,1-5.2c0-2.8-0.9-5.1-2.5-6.8
				C27.9,38.9,25.4,37.7,22.1,37z M6.3,19.8L6.3,19.8h8.3c3.4,0,5.9,0.6,7.5,1.8c1.6,1.2,2.4,3.2,2.4,5.9c0,1.1-0.2,2.2-0.6,3.2
				s-1,1.8-1.8,2.4c-0.8,0.7-1.9,1.2-3.2,1.6c-1.2,0.4-2.8,0.6-4.5,0.6H6.3V19.8z M25.4,50.5c-0.4,1-1,1.8-1.8,2.6
				c-0.8,0.7-1.8,1.3-3.1,1.7c-1.2,0.4-2.8,0.6-4.5,0.6H6.4v-0.1V39.6h9.7c3.4,0,5.9,0.7,7.5,2.1c1.7,1.3,2.5,3.2,2.5,5.5
				C26,48.4,25.9,49.5,25.4,50.5z"/>
			<path class="st0" d="M76.8,21.6c-2-2.1-4.3-3.7-7-4.8s-5.8-1.7-9.1-1.7s-6.3,0.6-9.1,1.7s-5.1,2.7-7,4.8s-3.4,4.5-4.5,7.3
				c-1.1,2.9-1.6,5.9-1.6,9.3c0,3.4,0.5,6.5,1.6,9.3s2.5,5.2,4.5,7.3s4.3,3.6,7,4.8c2.7,1.1,5.7,1.7,9.1,1.7c3.3,0,6.4-0.6,9.1-1.7
				c2.7-1.1,5.1-2.7,7-4.8c2-2.1,3.4-4.5,4.5-7.3c1.1-2.9,1.6-5.9,1.6-9.3c0-3.4-0.5-6.5-1.6-9.3C80.2,26.1,78.7,23.6,76.8,21.6z
				 M75.7,45.6c-0.7,2.2-1.8,4-3.2,5.6c-1.4,1.5-3.1,2.7-5.1,3.5s-4.2,1.2-6.6,1.2c-2.4,0-4.6-0.4-6.6-1.2s-3.7-2-5.1-3.5
				c-1.4-1.5-2.5-3.4-3.2-5.6c-0.7-2.2-1.1-4.7-1.1-7.5s0.3-5.3,1.1-7.5c0.7-2.2,1.8-4,3.2-5.6c1.4-1.5,3.1-2.7,5.1-3.5
				s4.2-1.2,6.6-1.2c2.4,0,4.6,0.4,6.6,1.2s3.7,2,5.1,3.5s2.5,3.4,3.2,5.6s1.1,4.7,1.1,7.5C76.8,40.9,76.4,43.4,75.7,45.6z"/>
			<path class="st0" d="M127.2,21.5c-1.9-2-4.3-3.7-7-4.8c-2.7-1.1-5.8-1.7-9.1-1.7c-3.3,0-6.3,0.6-9.1,1.7c-2.8,1.1-5.1,2.7-7,4.8
				s-3.4,4.5-4.5,7.3c-1.1,2.9-1.6,5.9-1.6,9.3c0,3.4,0.5,6.5,1.6,9.3c1.1,2.9,2.6,5.3,4.5,7.3c2,2.1,4.3,3.6,7,4.8
				c2.7,1.1,5.7,1.7,9.1,1.7c3.3,0,6.4-0.6,9.1-1.7s5.1-2.7,7-4.8c1.9-2,3.4-4.4,4.5-7.3c1.1-2.9,1.6-5.9,1.6-9.3
				c0-3.4-0.5-6.5-1.6-9.3C130.6,25.9,129.1,23.5,127.2,21.5z M125.9,45.5c-0.7,2.2-1.8,4-3.2,5.6c-1.4,1.6-3.1,2.7-5.1,3.5
				s-4.2,1.2-6.6,1.2s-4.6-0.4-6.6-1.2s-3.7-2-5.1-3.5s-2.5-3.4-3.2-5.6S95,40.8,95,38s0.4-5.3,1.1-7.5s1.8-4,3.2-5.6
				c1.4-1.5,3.1-2.7,5.1-3.5s4.2-1.2,6.6-1.2s4.6,0.4,6.6,1.2c2,0.8,3.7,2,5.1,3.5s2.5,3.4,3.2,5.6s1.1,4.7,1.1,7.5
				S126.7,43.3,125.9,45.5z"/>
			<path class="st0" d="M160.5,38.8c-0.7-0.5-1.2-1-1.6-1.4c-0.4-0.4-1-0.7-1.5-0.9c0.4-0.2,0.9-0.5,1.2-0.8
				c0.4-0.4,0.8-0.7,1.2-1.2L177.2,15H172c-0.7,0-1.2,0.1-1.7,0.4c-0.5,0.3-0.9,0.6-1.3,1.1l-15,17c-0.4,0.5-0.9,0.8-1.3,1
				c-0.4,0.2-1.1,0.3-1.9,0.3h-2.3V15h-6.1v45.2h6.1V39.5h2.7c0.5,0,1,0,1.2,0.1c0.4,0.1,0.7,0.1,1,0.3s0.5,0.3,0.7,0.4
				c0.2,0.1,0.4,0.4,0.7,0.7l15.6,18c0.1,0.2,0.4,0.4,0.5,0.5s0.4,0.3,0.6,0.4c0.2,0.1,0.4,0.2,0.7,0.2c0.3,0.1,0.6,0.1,1,0.1h5.3
				L160.5,38.8z"/>
		</g>
		<g>
			<path class="st0" d="M34.8,80.4c-0.2,0.1-0.4,0.4-0.4,0.7l-13.5,21.8c-0.3,0.4-0.6,1.1-0.8,1.5c-0.2,0.4-0.4,1-0.7,1.4
				c-0.1-0.4-0.4-1-0.7-1.4c-0.2-0.4-0.4-1-0.8-1.5l-13.6-22c-0.1-0.2-0.4-0.4-0.5-0.7C3.6,80.1,3.3,80,3,80H0l17.5,27.8v19.6H21
				V108l17.5-27.8h-3C35.2,80.1,35,80.3,34.8,80.4z"/>
			<path class="st0" d="M79.6,86.1c-2-2.1-4.4-3.7-7.2-5c-2.8-1.1-5.8-1.7-9.2-1.7c-3.3,0-6.4,0.6-9.1,1.8c-2.8,1.1-5.2,2.9-7.1,5
				c-2,2.1-3.5,4.7-4.7,7.7c-1.1,3-1.6,6.3-1.6,9.9s0.5,7,1.6,10s2.6,5.5,4.7,7.7c2,2.1,4.4,3.7,7.1,5c2.8,1.1,5.8,1.7,9.1,1.7
				c3.4,0,6.5-0.6,9.2-1.7s5.2-2.8,7.2-5c2-2.1,3.5-4.7,4.6-7.7s1.7-6.3,1.7-10c0-3.6-0.5-6.9-1.7-9.9
				C83.2,90.8,81.6,88.2,79.6,86.1z M81,112.5c-0.9,2.6-2.2,4.8-3.8,6.7c-1.7,1.9-3.6,3.2-6.1,4.2c-2.4,1-4.9,1.4-7.8,1.4
				c-2.9,0-5.4-0.4-7.7-1.4s-4.4-2.3-6-4.2c-1.7-1.9-3-4.1-4-6.7c-0.9-2.6-1.3-5.6-1.3-8.9s0.4-6.3,1.3-8.9c0.9-2.6,2.3-4.8,4-6.7
				c1.6-1.9,3.7-3.2,6-4.2s5-1.4,7.7-1.4c2.9,0,5.5,0.4,7.8,1.4c2.3,1,4.4,2.3,6.1,4.2c1.6,1.9,3,4.1,3.8,6.7s1.3,5.6,1.3,8.9
				C82.4,107,82,110,81,112.5z"/>
			<path class="st0" d="M128.9,109c0,2.2-0.3,4.3-1,6.2c-0.7,1.9-1.7,3.5-2.9,5c-1.2,1.4-2.8,2.5-4.6,3.3c-1.8,0.8-3.9,1.2-6.2,1.2
				s-4.3-0.4-6.2-1.2c-1.8-0.8-3.3-2-4.5-3.3s-2.2-3.1-2.9-5c-0.7-1.9-1-4-1-6.2V79.7h-3.5V109c0,2.5,0.4,5.1,1.2,7.4
				c1.2,2.3,2.4,4.3,4,5.9s3.5,3,5.6,4c2.3,1,4.7,1.4,7.5,1.4s5.3-0.4,7.5-1.4c2.3-1,4.1-2.3,5.6-4c1.5-1.7,2.8-3.6,3.5-5.9
				c0.8-2.3,1.2-4.7,1.2-7.4V79.7h-3.4L128.9,109L128.9,109z"/>
			<path class="st0" d="M163.5,106.9c-0.3-0.4-0.8-1-1.3-1.3c2.1-0.2,4-0.8,5.6-1.4c1.6-0.8,3.1-1.6,4.3-2.8c1.2-1.1,2.1-2.4,2.6-4
				c0.7-1.4,1-3.2,1-5c0-4.1-1.3-7.1-4.1-9.2c-2.6-2.1-6.8-3.2-12.2-3.2h-12.1v47.3h3.4v-21.5h6.2c0.9,0,1.6,0.1,2,0.3
				c0.4,0.2,0.9,0.6,1.2,1.1l15.2,19.1c0.1,0.3,0.3,0.5,0.7,0.7c0.2,0.1,0.5,0.2,0.9,0.2h3L163.5,106.9z M158.7,103.5h-8.3V82.8h8.7
				c4.2,0,7.4,0.8,9.7,2.4c2.2,1.7,3.3,4.1,3.3,7.5c0,1.7-0.3,3.2-0.9,4.4c-0.5,1.3-1.4,2.4-2.6,3.4c-1.1,1-2.5,1.6-4.2,2.2
				C162.8,103.1,160.8,103.5,158.7,103.5z"/>
		</g>
		<g>
			<polygon class="st0" points="0,152.4 14.7,152.4 14.7,192.5 20.8,192.5 20.8,152.4 35.4,152.4 35.4,147.3 0,147.3 			"/>
			<path class="st0" d="M60.7,172.6c1.8-0.4,3.3-1,4.7-1.8s2.6-1.8,3.5-2.9c1-1.1,1.7-2.3,2.2-3.7s0.7-2.9,0.7-4.5
				c0-1.9-0.3-3.7-1-5.2s-1.7-2.9-3-4s-3.1-1.9-5.1-2.5s-4.5-0.9-7.4-0.9H42.5v45.2h6.1v-18.8h4.6c0.8,0,1.5,0.1,1.9,0.4
				c0.4,0.2,0.8,0.6,1.2,1.1L68,191.1c0.5,0.9,1.3,1.3,2.4,1.3h5.4l-13.2-18C62.1,173.6,61.5,173,60.7,172.6z M54.9,169.1h-6.4V152
				h6.7c3.5,0,6.2,0.7,7.9,2.1c1.8,1.4,2.6,3.4,2.6,6.1c0,1.3-0.2,2.6-0.7,3.7c-0.4,1.1-1.2,2.1-2.1,2.8c-0.9,0.8-2.1,1.4-3.4,1.8
				C58.3,168.9,56.8,169.1,54.9,169.1z"/>
			<path class="st0" d="M95.3,147.3l-18,45.2H82c0.5,0,1-0.1,1.3-0.4s0.6-0.7,0.7-1l4.3-10.9h20.3l4.3,10.9c0.1,0.4,0.4,0.7,0.7,1
				c0.4,0.3,0.8,0.4,1.3,0.4h4.7l-18-45.2H95.3z M90,175.8L90,175.8l7.1-18.4c0.2-0.5,0.4-1.2,0.7-1.9c0.2-0.7,0.4-1.5,0.7-2.4
				c0.4,1.7,0.9,3.2,1.3,4.3l7.1,18.4L90,175.8L90,175.8z"/>
			<rect x="126.5" y="147.3" class="st0" width="6.1" height="45.2"/>
			<path class="st0" d="M176,147.4v31.8c0,0.5,0,1,0,1.5s0.1,1,0.1,1.6l-26.2-34c-0.4-0.4-0.7-0.7-0.9-0.8s-0.7-0.2-1.2-0.2h-3.2
				v45.2h5.4v-32.1c0-0.4,0-0.9,0-1.4s-0.1-1-0.1-1.5l26.2,34c0.3,0.4,0.7,0.7,1,0.9c0.4,0.1,0.7,0.2,1.2,0.2h3.1v-45.2H176z"/>
		</g>
	</g>
</g>
</svg>
