<?xml version="1.0" encoding="utf-8"?>
<!-- Generator: Adobe Illustrator 23.0.0, SVG Export Plug-In . SVG Version: 6.00 Build 0)  -->
<svg version="1.1" id="Layer_1" xmlns="http://www.w3.org/2000/svg" xmlns:xlink="http://www.w3.org/1999/xlink" x="0px" y="0px"
	 viewBox="0 0 1047 207.5" style="enable-background:new 0 0 1047 207.5;" xml:space="preserve">
<style type="text/css">
	.st0{fill:#E2E0DF;}
</style>
<g>
	<path class="st0" d="M263.1,122.8c0.9,7.7-2.2,13.1-9.4,16c-4.9,2-10,2.5-15.2,2.7c-11.4,0.3-22.7-1.4-33.8-3.7
		c-25.1-5.3-50-10.4-75.1-15.6c-17.5-3.6-35.1-7.2-52.2-12.9C58,102.7,38.6,95.8,19,89.9c-0.9-0.3-1.6-0.9-2.6-0.3
		c18.6,9,37.2,17.4,56.1,25.6c37.4,16.1,76,29.2,115.5,39.2c18.2,4.6,36.5,6.2,55.1,2.3c10.1-2.1,18-6.6,21.4-17
		c2.1-6.6,2.1-12.9-1.6-19.1C263,121.3,263,122,263.1,122.8z"/>
	<path class="st0" d="M163.9,182.5c-30.4-15.7-60.7-31.4-91.1-47.1c-23.2-12-46.3-23.9-69.4-35.8c-0.9-0.8-2-1.4-3.3-1.4
		c0.9,0.6,2,1.2,2.9,1.7c39.2,24.8,78.3,49.7,118,74.7c-17.7,2.5-34.7,4.9-51.7,7.3c0,0.1,0,0.3,0,0.3c31.8,0.3,63.6,0.7,95.4,0.9
		C164.4,182.8,164.2,182.6,163.9,182.5z"/>
	<path class="st0" d="M244.9,158.2c-7.4,2.7-15,3.8-22.9,4.1c-14.7,0.5-29.1-1.6-43.3-5c-13.2-3-25.9-7.2-38.6-11.8
		c-1.1-0.6-2.3-1.2-3.7-0.9c1,0.4,2.1,0.9,3.2,1.4c14.3,7,28.7,13.8,43.5,19.7c8.8,3.5,17.8,6.2,27.4,6.6
		c10.2,0.5,19.9-0.9,28.6-6.9c2.7-1.9,5.2-4.1,6.8-7.1C245.4,157.9,245.1,158.1,244.9,158.2z"/>
	<path class="st0" d="M23.4,68.6c0.6,3.5,0.9,7.2,0.6,10.8c-5.8,0.3-11.6,0.4-17.4,0.7c1.1,3.2,4.8,4.6,8.1,5.6
		C81.3,106.4,149,124.3,218,134.6C171.1,110.5,122.8,86,70.3,80.9c-0.9-0.1-1.9-0.2-2.4-0.9c-0.4-0.5-0.5-1.3-0.6-2
		c-0.4-6.1-0.3-12.2,0.3-18.3c0.2-1.4,0.3-2.7,0.9-4c2.2-5,8.8-5.8,14.3-5.9c-1.3,7.1-1.5,14.4-0.9,21.5c0.1,0.8,0.2,1.5,0.7,2.1
		c0.6,0.7,1.7,0.9,2.7,0.9c43.5,3.7,82.8,26.2,120.3,48.6c-13.3-20.5-28.7-39.5-46.2-56.6c16.5,13.7,32.9,27.4,49.4,41
		c8.6,7.2,18.3,14.7,29.6,14.4c3.2-0.1,6.4-0.9,8.8-3.1c5.6-5.1,2.7-13.5,1.3-19.8L243,81.3c-0.2-0.9-0.5-1.5-0.9-2.2
		c0.4,0.6,0.7,1.4,1.4,1.7c6.2,9.7,11.1,20.3,16.3,30.5c-10.7-27.7-25.8-54.9-49.8-72.4c-23.3-17-53.4-23.3-82.1-20
		c-11,1.3-22.1,3.8-33.2,3.5c-5-0.2-9.9-0.9-14.8,0.3c-4.6,1-8.6,3.7-12.6,6.2c-18.3,12-36.6,23.9-54.8,35.9
		c12.8-6.2,25.7-12.6,38.6-18.9c7.5-2,14.9-4.6,21.9-7.9c1.4-0.7,2.9-1.4,3.8-2.7c0.7-1,1-2.3,1.8-3.3c1-1.4,2.8-2,4.5-2.5
		c12.9-3.8,26.2-6.2,39.6-7.1c0.4,0,0.9-0.1,1.4,0.2c-10.2,1.6-20.2,4.4-29.8,8.1c15.2-0.8,30.6,5.7,40.5,17.3
		c-13.9-6.8-28.8-13.9-44.2-12.3c-8.3,0.9-16.1,4.1-23.8,7.4c-19.2,8.3-38.1,16.9-56.8,26.3c-2,1.1-4.3,2.8-3.6,4.9
		C12.1,72.4,17.8,70.5,23.4,68.6z M232.4,71.5c12,35.3,9.8,41.7,1.4,42c-8.5,0.3-42.7-34.3-42.7-34.3S228.8,92.6,232.4,71.5z
		 M133.4,41.4c-3.3-5.6-2.2-10.8,3.2-14.4c4.4-3,9.5-4.4,14.9-4.3c11.2,0.1,21.9,2.5,32.3,6.3c14.6,5.5,27.2,14.1,38.2,25.1
		c1.3,1.3,2.4,2.7,3.4,4c1.6,2.2,1.6,3.4-0.1,5.7c-1.6,2.1-3.9,3.2-6.5,3.8c-3.2,0.9-6.4,1-9.7,0.9c-20.3-1-40.1-4.1-58.6-13.3
		c-5-2.5-9.7-5.5-13.8-9.5C135.6,44.5,134.3,43,133.4,41.4z M53.4,59.2c0.1-0.6,0-1.3,0.9-1.5c3.6-1.1,7.2-2.3,11-3.6
		c-0.3,8.7,0.3,17.1,1.1,25.5c0.1,1.1,0,1.6-1.4,1.5c-3.5-0.3-7.1-0.5-10.6-0.7c-1.2-0.1-1.7-0.3-1.8-1.6
		C52.4,72.2,52.8,65.7,53.4,59.2z M40.8,63.3c0.1-0.8,0.4-1.1,1.1-1.3c2.5-0.9,5-1.6,7.4-2.6c1.4-0.5,1.4,0.2,1.4,1.2c0,3,0,6,0,8.9
		c0.1,0,0.2,0,0.3,0c0.2,3.1,0.3,6.2,0.7,9.3c0.1,1.2-0.3,1.5-1.4,1.4c-2.9-0.2-5.8-0.3-8.7-0.3c-1.1,0-1.6-0.3-1.6-1.5
		C39.8,73.3,40.2,68.2,40.8,63.3z M31.5,73.5c0-0.9,0.1-1.7,0.1-2.6c0.3-6.2,0.6-6.5,7-7.8c-0.3,5.1-0.1,10.2,0.3,15.2
		c0.1,0.9-0.2,1.4-1.1,1.2c-0.1,0-0.2,0-0.2,0C31.4,79.9,31.4,79.9,31.5,73.5z M25,68.6c0.1-0.6,0.3-0.9,0.9-1c1.5-0.5,3-1,4.8-1.7
		c0,4.4-0.2,8.5,0.3,12.7c0,0.3,0.1,0.8,0,0.8c-1.6,0.6-3.3,0.1-5,0.3c-1.1,0.1-1.1-0.9-1.1-1.5C24.5,74.9,24.6,71.7,25,68.6z"/>
	<path class="st0" d="M311.8,59.2c2-0.6,3.6-1.5,5-2.6c1.3-1.1,2.4-2.5,3.1-4c0.7-1.6,1-3.3,1-5.2c0-2.8-0.9-5.1-2.5-6.8
		c-1.6-1.7-4.1-2.9-7.4-3.6c1.4-0.4,2.6-1,3.7-1.7c1-0.7,1.9-1.5,2.6-2.3c0.7-0.9,1.2-1.8,1.6-2.9c0.4-1,0.5-2.1,0.5-3.2
		c0-1.8-0.3-3.4-1-4.9c-0.6-1.5-1.5-2.7-2.9-3.7c-1.3-1-2.9-1.8-5-2.3s-4.4-0.8-7.2-0.8h-14.4v45.1h16
		C307.6,60.1,309.8,59.8,311.8,59.2z M295.3,19.8h8.2c3.4,0,5.9,0.6,7.5,1.8c1.6,1.2,2.4,3.2,2.4,5.9c0,1.1-0.2,2.2-0.6,3.2
		c-0.4,1-1,1.8-1.8,2.4c-0.8,0.7-1.9,1.2-3.2,1.6c-1.2,0.4-2.8,0.6-4.5,0.6h-8.1V19.8z M295.3,55.3V39.6h9.7c3.4,0,5.9,0.7,7.5,2.1
		c1.7,1.3,2.5,3.2,2.5,5.5c-0.1,1.2-0.2,2.3-0.7,3.3c-0.4,1-1,1.8-1.8,2.6c-0.8,0.7-1.8,1.3-3.1,1.7c-1.2,0.4-2.8,0.6-4.5,0.6H295.3
		z"/>
	<path class="st0" d="M333.5,54.8c2,2.1,4.3,3.6,7,4.8c2.7,1.1,5.7,1.7,9.1,1.7c3.3,0,6.4-0.6,9.1-1.7c2.7-1.1,5.1-2.7,7-4.8
		c2-2.1,3.4-4.5,4.5-7.3c1.1-2.9,1.6-5.9,1.6-9.3s-0.5-6.5-1.6-9.3c-1.1-2.8-2.6-5.3-4.5-7.3c-2-2.1-4.3-3.7-7-4.8
		c-2.7-1.1-5.8-1.7-9.1-1.7c-3.3,0-6.3,0.6-9.1,1.7c-2.8,1.1-5.1,2.7-7,4.8s-3.4,4.5-4.5,7.3c-1.1,2.9-1.6,5.9-1.6,9.3
		s0.5,6.5,1.6,9.3C330.1,50.3,331.5,52.7,333.5,54.8z M334.8,30.6c0.7-2.2,1.8-4,3.2-5.6c1.4-1.5,3.1-2.7,5.1-3.5
		c2-0.8,4.2-1.2,6.6-1.2s4.6,0.4,6.6,1.2c2,0.8,3.7,2,5.1,3.5c1.4,1.5,2.5,3.4,3.2,5.6s1.1,4.7,1.1,7.5s-0.4,5.3-1.1,7.5
		s-1.8,4-3.2,5.6c-1.4,1.5-3.1,2.7-5.1,3.5c-2,0.8-4.2,1.2-6.6,1.2s-4.6-0.4-6.6-1.2c-2-0.8-3.7-2-5.1-3.5c-1.4-1.5-2.5-3.4-3.2-5.6
		c-0.7-2.2-1.1-4.7-1.1-7.5S334,32.8,334.8,30.6z"/>
	<path class="st0" d="M420.6,47.4c1.1-2.9,1.6-5.9,1.6-9.3s-0.5-6.5-1.6-9.3c-1.1-2.9-2.6-5.3-4.5-7.3s-4.3-3.7-7-4.8
		c-2.7-1.1-5.8-1.7-9.1-1.7c-3.3,0-6.3,0.6-9.1,1.7c-2.8,1.1-5.1,2.7-7,4.8s-3.4,4.5-4.5,7.3c-1.1,2.9-1.6,5.9-1.6,9.3
		s0.5,6.5,1.6,9.3c1.1,2.9,2.6,5.3,4.5,7.3c2,2.1,4.3,3.6,7,4.8c2.7,1.1,5.7,1.7,9.1,1.7c3.3,0,6.4-0.6,9.1-1.7
		c2.7-1.1,5.1-2.7,7-4.8C418,52.7,419.5,50.3,420.6,47.4z M414.8,45.5c-0.7,2.2-1.8,4-3.2,5.6s-3.1,2.7-5.1,3.5
		c-2,0.8-4.2,1.2-6.6,1.2c-2.4,0-4.6-0.4-6.6-1.2c-2-0.8-3.7-2-5.1-3.5c-1.4-1.5-2.5-3.4-3.2-5.6s-1.1-4.7-1.1-7.5s0.4-5.3,1.1-7.5
		s1.8-4,3.2-5.6c1.4-1.5,3.1-2.7,5.1-3.5c2-0.8,4.2-1.2,6.6-1.2c2.4,0,4.6,0.4,6.6,1.2c2,0.8,3.7,2,5.1,3.5s2.5,3.4,3.2,5.6
		s1.1,4.7,1.1,7.5S415.6,43.3,414.8,45.5z"/>
	<path class="st0" d="M437.3,39.5h2.8c0.5,0,1,0,1.2,0.1c0.4,0.1,0.7,0.1,1,0.3s0.5,0.3,0.7,0.4s0.4,0.4,0.7,0.7l15.6,18
		c0.1,0.2,0.4,0.4,0.5,0.5s0.4,0.3,0.6,0.4c0.2,0.1,0.4,0.2,0.7,0.2c0.3,0.1,0.6,0.1,1,0.1h5.3l-18-21.4c-0.7-0.5-1.2-1-1.6-1.4
		c-0.4-0.4-1-0.7-1.5-0.9c0.4-0.2,0.9-0.5,1.2-0.8c0.4-0.4,0.8-0.7,1.2-1.2L466.1,15h-5.2c-0.7,0-1.2,0.1-1.7,0.4s-0.9,0.6-1.3,1.1
		l-15,17c-0.4,0.5-0.9,0.8-1.3,1s-1.1,0.3-1.9,0.3h-2.3V15h-6.1v45.2h6.1V39.5z"/>
	<path class="st0" d="M300.3,125.3h3.2v-17.7l15.9-25.3h-2.7c-0.3,0-0.5,0.1-0.7,0.2c-0.2,0.1-0.4,0.4-0.4,0.6l-12.3,19.8
		c-0.3,0.4-0.5,1-0.7,1.4s-0.4,0.9-0.6,1.3c-0.1-0.4-0.4-0.9-0.6-1.3s-0.4-0.9-0.7-1.4L288.3,83c-0.1-0.2-0.4-0.4-0.5-0.6
		c-0.1-0.1-0.4-0.2-0.7-0.2h-2.7l15.9,25.3V125.3z"/>
	<path class="st0" d="M356.8,87.7c-1.8-1.9-4-3.4-6.5-4.5c-2.5-1-5.3-1.5-8.4-1.5c-3,0-5.8,0.5-8.3,1.6c-2.5,1-4.7,2.6-6.5,4.5
		c-1.8,1.9-3.2,4.3-4.3,7c-1,2.7-1.5,5.7-1.5,9s0.5,6.4,1.5,9.1c1,2.7,2.4,5,4.3,7c1.8,1.9,4,3.4,6.5,4.5c2.5,1,5.3,1.5,8.3,1.5
		c3.1,0,5.9-0.5,8.4-1.5c2.5-1,4.7-2.5,6.5-4.5c1.8-1.9,3.2-4.3,4.2-7c1-2.7,1.5-5.7,1.5-9.1c0-3.3-0.5-6.3-1.5-9
		C360,92,358.6,89.6,356.8,87.7z M358,111.7c-0.8,2.4-2,4.4-3.5,6.1c-1.5,1.7-3.3,2.9-5.5,3.8c-2.2,0.9-4.5,1.3-7.1,1.3
		c-2.6,0-4.9-0.4-7-1.3c-2.1-0.9-4-2.1-5.5-3.8c-1.5-1.7-2.7-3.7-3.6-6.1c-0.8-2.4-1.2-5.1-1.2-8.1c0-3,0.4-5.7,1.2-8.1
		c0.8-2.4,2.1-4.4,3.6-6.1c1.5-1.7,3.4-2.9,5.5-3.8c2.1-0.9,4.5-1.3,7-1.3c2.6,0,5,0.4,7.1,1.3c2.1,0.9,4,2.1,5.5,3.8
		c1.5,1.7,2.7,3.7,3.5,6.1c0.8,2.4,1.2,5.1,1.2,8.1C359.3,106.7,358.9,109.4,358,111.7z"/>
	<path class="st0" d="M376.6,120.6c1.4,1.5,3.2,2.7,5.1,3.6c2.1,0.9,4.3,1.3,6.8,1.3s4.8-0.4,6.8-1.3c2.1-0.9,3.7-2.1,5.1-3.6
		s2.5-3.3,3.2-5.4c0.7-2.1,1.1-4.3,1.1-6.7V81.9h-3.1v26.6c0,2-0.3,3.9-0.9,5.6s-1.5,3.2-2.6,4.5c-1.1,1.3-2.5,2.3-4.2,3
		c-1.6,0.7-3.5,1.1-5.6,1.1s-3.9-0.4-5.6-1.1c-1.6-0.7-3-1.8-4.1-3c-1.1-1.2-2-2.8-2.6-4.5s-0.9-3.6-0.9-5.6V81.9h-3.2v26.6
		c0,2.3,0.4,4.6,1.1,6.7C374.1,117.3,375.2,119.1,376.6,120.6z"/>
	<path class="st0" d="M444.3,125c0.2,0.1,0.5,0.2,0.8,0.2h2.7L433,106.6c-0.3-0.4-0.7-0.9-1.2-1.2c1.9-0.2,3.6-0.7,5.1-1.3
		c1.5-0.7,2.8-1.5,3.9-2.5c1.1-1,1.9-2.2,2.4-3.6c0.6-1.3,0.9-2.9,0.9-4.5c0-3.7-1.2-6.5-3.7-8.4c-2.4-1.9-6.2-2.9-11.1-2.9h-11v43
		h3.1v-19.5h5.6c0.8,0,1.5,0.1,1.8,0.3c0.4,0.2,0.8,0.5,1.1,1l13.8,17.4C443.8,124.7,444,124.9,444.3,125z M428.7,103.5h-7.5V84.7
		h7.9c3.8,0,6.7,0.7,8.8,2.2c2,1.5,3,3.7,3,6.8c0,1.5-0.3,2.9-0.8,4c-0.5,1.2-1.3,2.2-2.4,3.1c-1,0.9-2.3,1.5-3.8,2
		C432.4,103.2,430.6,103.5,428.7,103.5z"/>
	<polygon class="st0" points="285.6,152.4 300.3,152.4 300.3,192.5 306.4,192.5 306.4,152.4 321,152.4 321,147.3 285.6,147.3 	"/>
	<path class="st0" d="M346.3,172.6c1.8-0.4,3.3-1,4.7-1.8c1.4-0.8,2.6-1.8,3.5-2.9c1-1.1,1.7-2.3,2.2-3.7c0.5-1.4,0.7-2.9,0.7-4.5
		c0-1.9-0.3-3.7-1-5.2c-0.7-1.5-1.7-2.9-3-4c-1.3-1.1-3.1-1.9-5.1-2.5s-4.5-0.9-7.4-0.9h-12.8v45.2h6.1v-18.8h4.6
		c0.8,0,1.5,0.1,1.9,0.4c0.4,0.2,0.8,0.6,1.2,1.1l11.7,16.1c0.5,0.9,1.3,1.3,2.4,1.3h5.4l-13.2-18
		C347.7,173.6,347.1,173,346.3,172.6z M340.5,169.1h-6.4v-17.1h6.7c3.5,0,6.2,0.7,7.9,2.1c1.8,1.4,2.6,3.4,2.6,6.1
		c0,1.3-0.2,2.6-0.7,3.7c-0.4,1.1-1.2,2.1-2.1,2.8c-0.9,0.8-2.1,1.4-3.4,1.8C343.9,168.9,342.4,169.1,340.5,169.1z"/>
	<path class="st0" d="M380.9,147.3l-18,45.2h4.7c0.5,0,1-0.1,1.3-0.4s0.6-0.7,0.7-1l4.3-10.9h20.3l4.3,10.9c0.1,0.4,0.4,0.7,0.7,1
		c0.4,0.3,0.8,0.4,1.3,0.4h4.7l-18-45.2H380.9z M375.6,175.7l7.1-18.3c0.2-0.5,0.4-1.2,0.7-1.9c0.2-0.7,0.4-1.5,0.7-2.4
		c0.4,1.7,0.9,3.2,1.3,4.3l7.1,18.4H375.6z"/>
	<rect x="412.1" y="147.3" class="st0" width="6.1" height="45.2"/>
	<path class="st0" d="M461.6,179.2c0,0.5,0,1,0,1.5s0.1,1,0.1,1.6l-26.2-34c-0.4-0.4-0.7-0.7-0.9-0.8c-0.2-0.1-0.7-0.2-1.2-0.2h-3.2
		v45.2h5.4v-32.1c0-0.4,0-0.9,0-1.4c0-0.5-0.1-1-0.1-1.5l26.2,34c0.3,0.4,0.7,0.7,1,0.9c0.4,0.1,0.7,0.2,1.2,0.2h3.1v-45.2h-5.4
		V179.2z"/>
</g>
</svg>
